<?xml version="1.0" encoding="utf-8" standalone="no"?>
<!DOCTYPE svg PUBLIC "-//W3C//DTD SVG 1.1//EN"
  "http://www.w3.org/Graphics/SVG/1.1/DTD/svg11.dtd">
<svg xmlns:xlink="http://www.w3.org/1999/xlink" width="460.8pt" height="345.6pt" viewBox="0 0 460.8 345.6" xmlns="http://www.w3.org/2000/svg" version="1.1">
 <metadata>
  <rdf:RDF xmlns:dc="http://purl.org/dc/elements/1.1/" xmlns:cc="http://creativecommons.org/ns#" xmlns:rdf="http://www.w3.org/1999/02/22-rdf-syntax-ns#">
   <cc:Work>
    <dc:type rdf:resource="http://purl.org/dc/dcmitype/StillImage"/>
    <dc:date>2023-04-27T16:29:34.005171</dc:date>
    <dc:format>image/svg+xml</dc:format>
    <dc:creator>
     <cc:Agent>
      <dc:title>Matplotlib v3.6.1, https://matplotlib.org/</dc:title>
     </cc:Agent>
    </dc:creator>
   </cc:Work>
  </rdf:RDF>
 </metadata>
 <defs>
  <style type="text/css">*{stroke-linejoin: round; stroke-linecap: butt}</style>
 </defs>
 <g id="figure_1">
  <g id="patch_1">
   <path d="M 0 345.6 
L 460.8 345.6 
L 460.8 0 
L 0 0 
z
" style="fill: #ffffff"/>
  </g>
  <g id="axes_1">
   <g id="patch_2">
    <path d="M 57.6 307.584 
L 414.72 307.584 
L 414.72 41.472 
L 57.6 41.472 
z
" style="fill: #ffffff"/>
   </g>
   <g id="matplotlib.axis_1">
    <g id="xtick_1">
     <g id="line2d_1">
      <defs>
       <path id="mad348bc1ac" d="M 0 0 
L 0 3.5 
" style="stroke: #000000; stroke-width: 0.8"/>
      </defs>
      <g>
       <use xlink:href="#mad348bc1ac" x="73.832727" y="307.584" style="stroke: #000000; stroke-width: 0.8"/>
      </g>
     </g>
     <g id="text_1">
      <!-- 0 -->
      <g transform="translate(72.242102 318.383219) scale(0.05 -0.05)">
       <defs>
        <path id="DejaVuSans-30" d="M 2034 4250 
Q 1547 4250 1301 3770 
Q 1056 3291 1056 2328 
Q 1056 1369 1301 889 
Q 1547 409 2034 409 
Q 2525 409 2770 889 
Q 3016 1369 3016 2328 
Q 3016 3291 2770 3770 
Q 2525 4250 2034 4250 
z
M 2034 4750 
Q 2819 4750 3233 4129 
Q 3647 3509 3647 2328 
Q 3647 1150 3233 529 
Q 2819 -91 2034 -91 
Q 1250 -91 836 529 
Q 422 1150 422 2328 
Q 422 3509 836 4129 
Q 1250 4750 2034 4750 
z
" transform="scale(0.015625)"/>
       </defs>
       <use xlink:href="#DejaVuSans-30"/>
      </g>
     </g>
    </g>
    <g id="xtick_2">
     <g id="line2d_2">
      <g>
       <use xlink:href="#mad348bc1ac" x="142.181053" y="307.584" style="stroke: #000000; stroke-width: 0.8"/>
      </g>
     </g>
     <g id="text_2">
      <!-- 20 -->
      <g transform="translate(138.999803 318.383219) scale(0.05 -0.05)">
       <defs>
        <path id="DejaVuSans-32" d="M 1228 531 
L 3431 531 
L 3431 0 
L 469 0 
L 469 531 
Q 828 903 1448 1529 
Q 2069 2156 2228 2338 
Q 2531 2678 2651 2914 
Q 2772 3150 2772 3378 
Q 2772 3750 2511 3984 
Q 2250 4219 1831 4219 
Q 1534 4219 1204 4116 
Q 875 4013 500 3803 
L 500 4441 
Q 881 4594 1212 4672 
Q 1544 4750 1819 4750 
Q 2544 4750 2975 4387 
Q 3406 4025 3406 3419 
Q 3406 3131 3298 2873 
Q 3191 2616 2906 2266 
Q 2828 2175 2409 1742 
Q 1991 1309 1228 531 
z
" transform="scale(0.015625)"/>
       </defs>
       <use xlink:href="#DejaVuSans-32"/>
       <use xlink:href="#DejaVuSans-30" x="63.623047"/>
      </g>
     </g>
    </g>
    <g id="xtick_3">
     <g id="line2d_3">
      <g>
       <use xlink:href="#mad348bc1ac" x="210.529378" y="307.584" style="stroke: #000000; stroke-width: 0.8"/>
      </g>
     </g>
     <g id="text_3">
      <!-- 40 -->
      <g transform="translate(207.348128 318.383219) scale(0.05 -0.05)">
       <defs>
        <path id="DejaVuSans-34" d="M 2419 4116 
L 825 1625 
L 2419 1625 
L 2419 4116 
z
M 2253 4666 
L 3047 4666 
L 3047 1625 
L 3713 1625 
L 3713 1100 
L 3047 1100 
L 3047 0 
L 2419 0 
L 2419 1100 
L 313 1100 
L 313 1709 
L 2253 4666 
z
" transform="scale(0.015625)"/>
       </defs>
       <use xlink:href="#DejaVuSans-34"/>
       <use xlink:href="#DejaVuSans-30" x="63.623047"/>
      </g>
     </g>
    </g>
    <g id="xtick_4">
     <g id="line2d_4">
      <g>
       <use xlink:href="#mad348bc1ac" x="278.877703" y="307.584" style="stroke: #000000; stroke-width: 0.8"/>
      </g>
     </g>
     <g id="text_4">
      <!-- 60 -->
      <g transform="translate(275.696453 318.383219) scale(0.05 -0.05)">
       <defs>
        <path id="DejaVuSans-36" d="M 2113 2584 
Q 1688 2584 1439 2293 
Q 1191 2003 1191 1497 
Q 1191 994 1439 701 
Q 1688 409 2113 409 
Q 2538 409 2786 701 
Q 3034 994 3034 1497 
Q 3034 2003 2786 2293 
Q 2538 2584 2113 2584 
z
M 3366 4563 
L 3366 3988 
Q 3128 4100 2886 4159 
Q 2644 4219 2406 4219 
Q 1781 4219 1451 3797 
Q 1122 3375 1075 2522 
Q 1259 2794 1537 2939 
Q 1816 3084 2150 3084 
Q 2853 3084 3261 2657 
Q 3669 2231 3669 1497 
Q 3669 778 3244 343 
Q 2819 -91 2113 -91 
Q 1303 -91 875 529 
Q 447 1150 447 2328 
Q 447 3434 972 4092 
Q 1497 4750 2381 4750 
Q 2619 4750 2861 4703 
Q 3103 4656 3366 4563 
z
" transform="scale(0.015625)"/>
       </defs>
       <use xlink:href="#DejaVuSans-36"/>
       <use xlink:href="#DejaVuSans-30" x="63.623047"/>
      </g>
     </g>
    </g>
    <g id="xtick_5">
     <g id="line2d_5">
      <g>
       <use xlink:href="#mad348bc1ac" x="347.226029" y="307.584" style="stroke: #000000; stroke-width: 0.8"/>
      </g>
     </g>
     <g id="text_5">
      <!-- 80 -->
      <g transform="translate(344.044779 318.383219) scale(0.05 -0.05)">
       <defs>
        <path id="DejaVuSans-38" d="M 2034 2216 
Q 1584 2216 1326 1975 
Q 1069 1734 1069 1313 
Q 1069 891 1326 650 
Q 1584 409 2034 409 
Q 2484 409 2743 651 
Q 3003 894 3003 1313 
Q 3003 1734 2745 1975 
Q 2488 2216 2034 2216 
z
M 1403 2484 
Q 997 2584 770 2862 
Q 544 3141 544 3541 
Q 544 4100 942 4425 
Q 1341 4750 2034 4750 
Q 2731 4750 3128 4425 
Q 3525 4100 3525 3541 
Q 3525 3141 3298 2862 
Q 3072 2584 2669 2484 
Q 3125 2378 3379 2068 
Q 3634 1759 3634 1313 
Q 3634 634 3220 271 
Q 2806 -91 2034 -91 
Q 1263 -91 848 271 
Q 434 634 434 1313 
Q 434 1759 690 2068 
Q 947 2378 1403 2484 
z
M 1172 3481 
Q 1172 3119 1398 2916 
Q 1625 2713 2034 2713 
Q 2441 2713 2670 2916 
Q 2900 3119 2900 3481 
Q 2900 3844 2670 4047 
Q 2441 4250 2034 4250 
Q 1625 4250 1398 4047 
Q 1172 3844 1172 3481 
z
" transform="scale(0.015625)"/>
       </defs>
       <use xlink:href="#DejaVuSans-38"/>
       <use xlink:href="#DejaVuSans-30" x="63.623047"/>
      </g>
     </g>
    </g>
    <g id="text_6">
     <!-- t -->
     <g transform="translate(412.759844 327.222281) scale(0.05 -0.05)">
      <defs>
       <path id="DejaVuSans-74" d="M 1172 4494 
L 1172 3500 
L 2356 3500 
L 2356 3053 
L 1172 3053 
L 1172 1153 
Q 1172 725 1289 603 
Q 1406 481 1766 481 
L 2356 481 
L 2356 0 
L 1766 0 
Q 1100 0 847 248 
Q 594 497 594 1153 
L 594 3053 
L 172 3053 
L 172 3500 
L 594 3500 
L 594 4494 
L 1172 4494 
z
" transform="scale(0.015625)"/>
      </defs>
      <use xlink:href="#DejaVuSans-74"/>
     </g>
    </g>
   </g>
   <g id="matplotlib.axis_2">
    <g id="ytick_1">
     <g id="line2d_6">
      <defs>
       <path id="m2a273747da" d="M 0 0 
L -3.5 0 
" style="stroke: #000000; stroke-width: 0.8"/>
      </defs>
      <g>
       <use xlink:href="#m2a273747da" x="57.6" y="287.282227" style="stroke: #000000; stroke-width: 0.8"/>
      </g>
     </g>
     <g id="text_7">
      <!-- 2000 -->
      <g transform="translate(37.875 289.181836) scale(0.05 -0.05)">
       <use xlink:href="#DejaVuSans-32"/>
       <use xlink:href="#DejaVuSans-30" x="63.623047"/>
       <use xlink:href="#DejaVuSans-30" x="127.246094"/>
       <use xlink:href="#DejaVuSans-30" x="190.869141"/>
      </g>
     </g>
    </g>
    <g id="ytick_2">
     <g id="line2d_7">
      <g>
       <use xlink:href="#m2a273747da" x="57.6" y="255.636359" style="stroke: #000000; stroke-width: 0.8"/>
      </g>
     </g>
     <g id="text_8">
      <!-- 4000 -->
      <g transform="translate(37.875 257.535968) scale(0.05 -0.05)">
       <use xlink:href="#DejaVuSans-34"/>
       <use xlink:href="#DejaVuSans-30" x="63.623047"/>
       <use xlink:href="#DejaVuSans-30" x="127.246094"/>
       <use xlink:href="#DejaVuSans-30" x="190.869141"/>
      </g>
     </g>
    </g>
    <g id="ytick_3">
     <g id="line2d_8">
      <g>
       <use xlink:href="#m2a273747da" x="57.6" y="223.990491" style="stroke: #000000; stroke-width: 0.8"/>
      </g>
     </g>
     <g id="text_9">
      <!-- 6000 -->
      <g transform="translate(37.875 225.890101) scale(0.05 -0.05)">
       <use xlink:href="#DejaVuSans-36"/>
       <use xlink:href="#DejaVuSans-30" x="63.623047"/>
       <use xlink:href="#DejaVuSans-30" x="127.246094"/>
       <use xlink:href="#DejaVuSans-30" x="190.869141"/>
      </g>
     </g>
    </g>
    <g id="ytick_4">
     <g id="line2d_9">
      <g>
       <use xlink:href="#m2a273747da" x="57.6" y="192.344623" style="stroke: #000000; stroke-width: 0.8"/>
      </g>
     </g>
     <g id="text_10">
      <!-- 8000 -->
      <g transform="translate(37.875 194.244233) scale(0.05 -0.05)">
       <use xlink:href="#DejaVuSans-38"/>
       <use xlink:href="#DejaVuSans-30" x="63.623047"/>
       <use xlink:href="#DejaVuSans-30" x="127.246094"/>
       <use xlink:href="#DejaVuSans-30" x="190.869141"/>
      </g>
     </g>
    </g>
    <g id="ytick_5">
     <g id="line2d_10">
      <g>
       <use xlink:href="#m2a273747da" x="57.6" y="160.698756" style="stroke: #000000; stroke-width: 0.8"/>
      </g>
     </g>
     <g id="text_11">
      <!-- 10000 -->
      <g transform="translate(34.69375 162.598365) scale(0.05 -0.05)">
       <defs>
        <path id="DejaVuSans-31" d="M 794 531 
L 1825 531 
L 1825 4091 
L 703 3866 
L 703 4441 
L 1819 4666 
L 2450 4666 
L 2450 531 
L 3481 531 
L 3481 0 
L 794 0 
L 794 531 
z
" transform="scale(0.015625)"/>
       </defs>
       <use xlink:href="#DejaVuSans-31"/>
       <use xlink:href="#DejaVuSans-30" x="63.623047"/>
       <use xlink:href="#DejaVuSans-30" x="127.246094"/>
       <use xlink:href="#DejaVuSans-30" x="190.869141"/>
       <use xlink:href="#DejaVuSans-30" x="254.492188"/>
      </g>
     </g>
    </g>
    <g id="ytick_6">
     <g id="line2d_11">
      <g>
       <use xlink:href="#m2a273747da" x="57.6" y="129.052888" style="stroke: #000000; stroke-width: 0.8"/>
      </g>
     </g>
     <g id="text_12">
      <!-- 12000 -->
      <g transform="translate(34.69375 130.952498) scale(0.05 -0.05)">
       <use xlink:href="#DejaVuSans-31"/>
       <use xlink:href="#DejaVuSans-32" x="63.623047"/>
       <use xlink:href="#DejaVuSans-30" x="127.246094"/>
       <use xlink:href="#DejaVuSans-30" x="190.869141"/>
       <use xlink:href="#DejaVuSans-30" x="254.492188"/>
      </g>
     </g>
    </g>
    <g id="ytick_7">
     <g id="line2d_12">
      <g>
       <use xlink:href="#m2a273747da" x="57.6" y="97.40702" style="stroke: #000000; stroke-width: 0.8"/>
      </g>
     </g>
     <g id="text_13">
      <!-- 14000 -->
      <g transform="translate(34.69375 99.30663) scale(0.05 -0.05)">
       <use xlink:href="#DejaVuSans-31"/>
       <use xlink:href="#DejaVuSans-34" x="63.623047"/>
       <use xlink:href="#DejaVuSans-30" x="127.246094"/>
       <use xlink:href="#DejaVuSans-30" x="190.869141"/>
       <use xlink:href="#DejaVuSans-30" x="254.492188"/>
      </g>
     </g>
    </g>
    <g id="ytick_8">
     <g id="line2d_13">
      <g>
       <use xlink:href="#m2a273747da" x="57.6" y="65.761153" style="stroke: #000000; stroke-width: 0.8"/>
      </g>
     </g>
     <g id="text_14">
      <!-- 16000 -->
      <g transform="translate(34.69375 67.660762) scale(0.05 -0.05)">
       <use xlink:href="#DejaVuSans-31"/>
       <use xlink:href="#DejaVuSans-36" x="63.623047"/>
       <use xlink:href="#DejaVuSans-30" x="127.246094"/>
       <use xlink:href="#DejaVuSans-30" x="190.869141"/>
       <use xlink:href="#DejaVuSans-30" x="254.492188"/>
      </g>
     </g>
    </g>
    <g id="text_15">
     <!-- Demand -->
     <g transform="translate(29.653906 62.675906) rotate(-90) scale(0.05 -0.05)">
      <defs>
       <path id="DejaVuSans-44" d="M 1259 4147 
L 1259 519 
L 2022 519 
Q 2988 519 3436 956 
Q 3884 1394 3884 2338 
Q 3884 3275 3436 3711 
Q 2988 4147 2022 4147 
L 1259 4147 
z
M 628 4666 
L 1925 4666 
Q 3281 4666 3915 4102 
Q 4550 3538 4550 2338 
Q 4550 1131 3912 565 
Q 3275 0 1925 0 
L 628 0 
L 628 4666 
z
" transform="scale(0.015625)"/>
       <path id="DejaVuSans-65" d="M 3597 1894 
L 3597 1613 
L 953 1613 
Q 991 1019 1311 708 
Q 1631 397 2203 397 
Q 2534 397 2845 478 
Q 3156 559 3463 722 
L 3463 178 
Q 3153 47 2828 -22 
Q 2503 -91 2169 -91 
Q 1331 -91 842 396 
Q 353 884 353 1716 
Q 353 2575 817 3079 
Q 1281 3584 2069 3584 
Q 2775 3584 3186 3129 
Q 3597 2675 3597 1894 
z
M 3022 2063 
Q 3016 2534 2758 2815 
Q 2500 3097 2075 3097 
Q 1594 3097 1305 2825 
Q 1016 2553 972 2059 
L 3022 2063 
z
" transform="scale(0.015625)"/>
       <path id="DejaVuSans-6d" d="M 3328 2828 
Q 3544 3216 3844 3400 
Q 4144 3584 4550 3584 
Q 5097 3584 5394 3201 
Q 5691 2819 5691 2113 
L 5691 0 
L 5113 0 
L 5113 2094 
Q 5113 2597 4934 2840 
Q 4756 3084 4391 3084 
Q 3944 3084 3684 2787 
Q 3425 2491 3425 1978 
L 3425 0 
L 2847 0 
L 2847 2094 
Q 2847 2600 2669 2842 
Q 2491 3084 2119 3084 
Q 1678 3084 1418 2786 
Q 1159 2488 1159 1978 
L 1159 0 
L 581 0 
L 581 3500 
L 1159 3500 
L 1159 2956 
Q 1356 3278 1631 3431 
Q 1906 3584 2284 3584 
Q 2666 3584 2933 3390 
Q 3200 3197 3328 2828 
z
" transform="scale(0.015625)"/>
       <path id="DejaVuSans-61" d="M 2194 1759 
Q 1497 1759 1228 1600 
Q 959 1441 959 1056 
Q 959 750 1161 570 
Q 1363 391 1709 391 
Q 2188 391 2477 730 
Q 2766 1069 2766 1631 
L 2766 1759 
L 2194 1759 
z
M 3341 1997 
L 3341 0 
L 2766 0 
L 2766 531 
Q 2569 213 2275 61 
Q 1981 -91 1556 -91 
Q 1019 -91 701 211 
Q 384 513 384 1019 
Q 384 1609 779 1909 
Q 1175 2209 1959 2209 
L 2766 2209 
L 2766 2266 
Q 2766 2663 2505 2880 
Q 2244 3097 1772 3097 
Q 1472 3097 1187 3025 
Q 903 2953 641 2809 
L 641 3341 
Q 956 3463 1253 3523 
Q 1550 3584 1831 3584 
Q 2591 3584 2966 3190 
Q 3341 2797 3341 1997 
z
" transform="scale(0.015625)"/>
       <path id="DejaVuSans-6e" d="M 3513 2113 
L 3513 0 
L 2938 0 
L 2938 2094 
Q 2938 2591 2744 2837 
Q 2550 3084 2163 3084 
Q 1697 3084 1428 2787 
Q 1159 2491 1159 1978 
L 1159 0 
L 581 0 
L 581 3500 
L 1159 3500 
L 1159 2956 
Q 1366 3272 1645 3428 
Q 1925 3584 2291 3584 
Q 2894 3584 3203 3211 
Q 3513 2838 3513 2113 
z
" transform="scale(0.015625)"/>
       <path id="DejaVuSans-64" d="M 2906 2969 
L 2906 4863 
L 3481 4863 
L 3481 0 
L 2906 0 
L 2906 525 
Q 2725 213 2448 61 
Q 2172 -91 1784 -91 
Q 1150 -91 751 415 
Q 353 922 353 1747 
Q 353 2572 751 3078 
Q 1150 3584 1784 3584 
Q 2172 3584 2448 3432 
Q 2725 3281 2906 2969 
z
M 947 1747 
Q 947 1113 1208 752 
Q 1469 391 1925 391 
Q 2381 391 2643 752 
Q 2906 1113 2906 1747 
Q 2906 2381 2643 2742 
Q 2381 3103 1925 3103 
Q 1469 3103 1208 2742 
Q 947 2381 947 1747 
z
" transform="scale(0.015625)"/>
      </defs>
      <use xlink:href="#DejaVuSans-44"/>
      <use xlink:href="#DejaVuSans-65" x="77.001953"/>
      <use xlink:href="#DejaVuSans-6d" x="138.525391"/>
      <use xlink:href="#DejaVuSans-61" x="235.9375"/>
      <use xlink:href="#DejaVuSans-6e" x="297.216797"/>
      <use xlink:href="#DejaVuSans-64" x="360.595703"/>
     </g>
    </g>
   </g>
   <g id="line2d_14">
    <path d="M 73.832727 283.326493 
L 73.832727 210.414414 
L 77.250144 210.414414 
L 77.250144 208.634334 
L 80.66756 208.634334 
L 80.66756 206.854254 
L 84.084976 206.854254 
L 84.084976 210.414414 
L 87.502392 210.414414 
L 87.502392 214.045777 
L 90.919809 214.045777 
L 90.919809 246.671085 
L 94.337225 246.671085 
L 94.337225 251.925881 
L 97.754641 251.925881 
L 97.754641 271.364355 
L 101.172057 271.364355 
L 101.172057 279.339114 
L 104.589474 279.339114 
L 104.589474 275.622307 
L 108.00689 275.622307 
L 108.00689 274.041595 
L 111.424306 274.041595 
L 111.424306 268.957687 
L 114.841722 268.957687 
L 114.841722 267.24881 
L 118.259139 267.24881 
L 118.259139 265.525692 
L 121.676555 265.525692 
L 121.676555 263.745612 
L 125.093971 263.745612 
L 125.093971 261.894329 
L 128.511388 261.894329 
L 128.511388 263.603206 
L 131.928804 263.603206 
L 131.928804 265.24088 
L 135.34622 265.24088 
L 135.34622 266.878553 
L 138.763636 266.878553 
L 138.763636 268.943446 
L 142.181053 268.943446 
L 142.181053 255.343635 
L 145.598469 255.343635 
L 145.598469 243.367256 
L 149.015885 243.367256 
L 149.015885 231.932022 
L 152.433301 231.932022 
L 152.433301 223.316434 
L 155.850718 223.316434 
L 155.850718 227.44622 
L 159.268134 227.44622 
L 159.268134 236.218454 
L 162.68555 236.218454 
L 162.68555 223.957263 
L 166.102967 223.957263 
L 166.102967 230.180423 
L 169.520383 230.180423 
L 169.520383 197.398469 
L 172.937799 197.398469 
L 172.937799 180.024887 
L 176.355215 180.024887 
L 176.355215 151.557847 
L 179.772632 151.557847 
L 179.772632 126.707929 
L 183.190048 126.707929 
L 183.190048 102.356434 
L 186.607464 102.356434 
L 186.607464 89.739227 
L 190.02488 89.739227 
L 190.02488 66.882999 
L 193.442297 66.882999 
L 193.442297 54.849658 
L 196.859713 54.849658 
L 196.859713 53.568 
L 200.277129 53.568 
L 200.277129 55.476246 
L 203.694545 55.476246 
L 203.694545 64.875069 
L 207.111962 64.875069 
L 207.111962 71.226394 
L 210.529378 71.226394 
L 210.529378 78.332474 
L 213.946794 78.332474 
L 213.946794 68.577635 
L 217.364211 68.577635 
L 217.364211 76.623597 
L 220.781627 76.623597 
L 220.781627 84.199618 
L 224.199043 84.199618 
L 224.199043 89.112639 
L 227.616459 89.112639 
L 227.616459 102.228268 
L 231.033876 102.228268 
L 231.033876 101.872252 
L 234.451292 101.872252 
L 234.451292 99.009884 
L 237.868708 99.009884 
L 237.868708 115.956246 
L 241.286124 115.956246 
L 241.286124 109.83277 
L 244.703541 109.83277 
L 244.703541 112.396086 
L 248.120957 112.396086 
L 248.120957 116.867647 
L 251.538373 116.867647 
L 251.538373 109.747327 
L 254.955789 109.747327 
L 254.955789 134.170025 
L 258.373206 134.170025 
L 258.373206 123.774357 
L 261.790622 123.774357 
L 261.790622 123.204732 
L 265.208038 123.204732 
L 265.208038 121.068636 
L 268.625455 121.068636 
L 268.625455 125.981657 
L 272.042871 125.981657 
L 272.042871 147.769837 
L 275.460287 147.769837 
L 275.460287 155.317376 
L 278.877703 155.317376 
L 278.877703 167.63553 
L 282.29512 167.63553 
L 282.29512 177.931513 
L 285.712536 177.931513 
L 285.712536 193.952234 
L 289.129952 193.952234 
L 289.129952 209.118516 
L 292.547368 209.118516 
L 292.547368 234.495337 
L 295.964785 234.495337 
L 295.964785 250.78663 
L 299.382201 250.78663 
L 299.382201 237.400428 
L 302.799617 237.400428 
L 302.799617 272.916585 
L 306.217033 272.916585 
L 306.217033 278.883413 
L 309.63445 278.883413 
L 309.63445 293.48007 
L 313.051866 293.48007 
L 313.051866 291.643027 
L 316.469282 291.643027 
L 316.469282 295.488 
L 319.886699 295.488 
L 319.886699 293.351904 
L 323.304115 293.351904 
L 323.304115 285.733161 
L 326.721531 285.733161 
L 326.721531 279.267911 
L 330.138947 279.267911 
L 330.138947 273.429248 
L 333.556364 273.429248 
L 333.556364 288.638252 
L 336.97378 288.638252 
L 336.97378 257.650618 
L 340.391196 257.650618 
L 340.391196 234.5523 
L 343.808612 234.5523 
L 343.808612 233.598177 
L 347.226029 233.598177 
L 347.226029 221.351226 
L 350.643445 221.351226 
L 350.643445 216.438205 
L 354.060861 216.438205 
L 354.060861 241.288122 
L 357.478278 241.288122 
L 357.478278 239.721652 
L 360.895694 239.721652 
L 360.895694 242.56978 
L 364.31311 242.56978 
L 364.31311 242.911555 
L 367.730526 242.911555 
L 367.730526 236.57447 
L 371.147943 236.57447 
L 371.147943 246.542919 
L 374.565359 246.542919 
L 374.565359 256.226554 
L 377.982775 256.226554 
L 377.982775 257.878469 
L 381.400191 257.878469 
L 381.400191 264.856382 
L 384.817608 264.856382 
L 384.817608 280.008424 
L 388.235024 280.008424 
L 388.235024 267.320013 
L 391.65244 267.320013 
L 391.65244 266.750388 
L 395.069856 266.750388 
L 395.069856 281.204638 
L 398.487273 281.204638 
L 398.487273 281.204638 
" clip-path="url(#p04010b1214)" style="fill: none; stroke: #1f77b4; stroke-width: 1.5; stroke-linecap: square"/>
   </g>
   <g id="line2d_15">
    <path d="M 73.832727 253.468636 
L 73.832727 253.468637 
L 142.181053 253.468633 
L 142.181053 252.955262 
L 145.598469 252.955262 
L 145.598469 238.317797 
L 149.015885 238.317797 
L 149.015885 222.126483 
L 152.433301 222.126483 
L 152.433301 205.034664 
L 155.850718 205.034664 
L 155.850718 195.416621 
L 159.268134 195.416621 
L 159.268134 184.507751 
L 162.68555 184.507751 
L 162.68555 171.615505 
L 166.102967 171.615505 
L 166.102967 154.253543 
L 169.520383 154.253543 
L 169.520383 133.163784 
L 172.937799 133.163784 
L 172.937799 112.818972 
L 176.355215 112.818972 
L 176.355215 96.107383 
L 179.772632 96.107383 
L 179.772632 91.64658 
L 289.129952 91.646575 
L 289.129952 93.380679 
L 292.547368 93.380679 
L 292.547368 96.971965 
L 295.964785 96.971965 
L 295.964785 104.830791 
L 299.382201 104.830791 
L 299.382201 114.462812 
L 302.799617 114.462812 
L 302.799617 126.582564 
L 306.217033 126.582564 
L 306.217033 141.400609 
L 309.63445 141.400609 
L 309.63445 154.443521 
L 313.051866 154.443521 
L 313.051866 169.310458 
L 316.469282 169.310458 
L 316.469282 183.507767 
L 319.886699 183.507767 
L 319.886699 182.451586 
L 323.304115 182.451586 
L 323.304115 181.143014 
L 326.721531 181.143014 
L 326.721531 180.122313 
L 330.138947 180.122313 
L 330.138947 182.820889 
L 333.556364 182.820889 
L 333.556364 183.72364 
L 336.97378 183.72364 
L 336.97378 187.958734 
L 340.391196 187.958734 
L 340.391196 191.841736 
L 343.808612 191.841736 
L 343.808612 195.465833 
L 347.226029 195.465833 
L 347.226029 204.501083 
L 350.643445 204.501083 
L 350.643445 213.174403 
L 354.060861 213.174403 
L 354.060861 221.361272 
L 357.478278 221.361272 
L 357.478278 228.625437 
L 360.895694 228.625437 
L 360.895694 232.811681 
L 364.31311 232.811681 
L 364.31311 236.350181 
L 367.730526 236.350181 
L 367.730526 239.309588 
L 371.147943 239.309588 
L 371.147943 241.60165 
L 374.565359 241.60165 
L 374.565359 243.317392 
L 377.982775 243.317392 
L 377.982775 244.730817 
L 381.400191 244.730817 
L 381.400191 245.93147 
L 384.817608 245.93147 
L 384.817608 247.014796 
L 388.235024 247.014796 
L 388.235024 246.757788 
L 391.65244 246.757788 
L 391.65244 246.554235 
L 395.069856 246.554235 
L 395.069856 246.267709 
L 398.487273 246.267709 
L 398.487273 246.267709 
" clip-path="url(#p04010b1214)" style="fill: none; stroke: #ff7f0e; stroke-width: 1.5; stroke-linecap: square"/>
   </g>
   <g id="patch_3">
    <path d="M 57.6 307.584 
L 57.6 41.472 
" style="fill: none; stroke: #000000; stroke-width: 0.8; stroke-linejoin: miter; stroke-linecap: square"/>
   </g>
   <g id="patch_4">
    <path d="M 414.72 307.584 
L 414.72 41.472 
" style="fill: none; stroke: #000000; stroke-width: 0.8; stroke-linejoin: miter; stroke-linecap: square"/>
   </g>
   <g id="patch_5">
    <path d="M 57.6 307.584 
L 414.72 307.584 
" style="fill: none; stroke: #000000; stroke-width: 0.8; stroke-linejoin: miter; stroke-linecap: square"/>
   </g>
   <g id="patch_6">
    <path d="M 57.6 41.472 
L 414.72 41.472 
" style="fill: none; stroke: #000000; stroke-width: 0.8; stroke-linejoin: miter; stroke-linecap: square"/>
   </g>
   <g id="legend_1">
    <g id="patch_7">
     <path d="M 344.223906 60.42825 
L 411.22 60.42825 
Q 412.22 60.42825 412.22 59.42825 
L 412.22 44.972 
Q 412.22 43.972 411.22 43.972 
L 344.223906 43.972 
Q 343.223906 43.972 343.223906 44.972 
L 343.223906 59.42825 
Q 343.223906 60.42825 344.223906 60.42825 
z
" style="fill: #ffffff; opacity: 0.8; stroke: #cccccc; stroke-linejoin: miter"/>
    </g>
    <g id="line2d_16">
     <path d="M 345.223906 48.021219 
L 345.223906 48.021219 
L 350.223906 48.021219 
L 350.223906 48.021219 
L 355.223906 48.021219 
" style="fill: none; stroke: #1f77b4; stroke-width: 1.5; stroke-linecap: square"/>
    </g>
    <g id="text_16">
     <!-- disordered_charging -->
     <g transform="translate(359.223906 49.771219) scale(0.05 -0.05)">
      <defs>
       <path id="DejaVuSans-69" d="M 603 3500 
L 1178 3500 
L 1178 0 
L 603 0 
L 603 3500 
z
M 603 4863 
L 1178 4863 
L 1178 4134 
L 603 4134 
L 603 4863 
z
" transform="scale(0.015625)"/>
       <path id="DejaVuSans-73" d="M 2834 3397 
L 2834 2853 
Q 2591 2978 2328 3040 
Q 2066 3103 1784 3103 
Q 1356 3103 1142 2972 
Q 928 2841 928 2578 
Q 928 2378 1081 2264 
Q 1234 2150 1697 2047 
L 1894 2003 
Q 2506 1872 2764 1633 
Q 3022 1394 3022 966 
Q 3022 478 2636 193 
Q 2250 -91 1575 -91 
Q 1294 -91 989 -36 
Q 684 19 347 128 
L 347 722 
Q 666 556 975 473 
Q 1284 391 1588 391 
Q 1994 391 2212 530 
Q 2431 669 2431 922 
Q 2431 1156 2273 1281 
Q 2116 1406 1581 1522 
L 1381 1569 
Q 847 1681 609 1914 
Q 372 2147 372 2553 
Q 372 3047 722 3315 
Q 1072 3584 1716 3584 
Q 2034 3584 2315 3537 
Q 2597 3491 2834 3397 
z
" transform="scale(0.015625)"/>
       <path id="DejaVuSans-6f" d="M 1959 3097 
Q 1497 3097 1228 2736 
Q 959 2375 959 1747 
Q 959 1119 1226 758 
Q 1494 397 1959 397 
Q 2419 397 2687 759 
Q 2956 1122 2956 1747 
Q 2956 2369 2687 2733 
Q 2419 3097 1959 3097 
z
M 1959 3584 
Q 2709 3584 3137 3096 
Q 3566 2609 3566 1747 
Q 3566 888 3137 398 
Q 2709 -91 1959 -91 
Q 1206 -91 779 398 
Q 353 888 353 1747 
Q 353 2609 779 3096 
Q 1206 3584 1959 3584 
z
" transform="scale(0.015625)"/>
       <path id="DejaVuSans-72" d="M 2631 2963 
Q 2534 3019 2420 3045 
Q 2306 3072 2169 3072 
Q 1681 3072 1420 2755 
Q 1159 2438 1159 1844 
L 1159 0 
L 581 0 
L 581 3500 
L 1159 3500 
L 1159 2956 
Q 1341 3275 1631 3429 
Q 1922 3584 2338 3584 
Q 2397 3584 2469 3576 
Q 2541 3569 2628 3553 
L 2631 2963 
z
" transform="scale(0.015625)"/>
       <path id="DejaVuSans-5f" d="M 3263 -1063 
L 3263 -1509 
L -63 -1509 
L -63 -1063 
L 3263 -1063 
z
" transform="scale(0.015625)"/>
       <path id="DejaVuSans-63" d="M 3122 3366 
L 3122 2828 
Q 2878 2963 2633 3030 
Q 2388 3097 2138 3097 
Q 1578 3097 1268 2742 
Q 959 2388 959 1747 
Q 959 1106 1268 751 
Q 1578 397 2138 397 
Q 2388 397 2633 464 
Q 2878 531 3122 666 
L 3122 134 
Q 2881 22 2623 -34 
Q 2366 -91 2075 -91 
Q 1284 -91 818 406 
Q 353 903 353 1747 
Q 353 2603 823 3093 
Q 1294 3584 2113 3584 
Q 2378 3584 2631 3529 
Q 2884 3475 3122 3366 
z
" transform="scale(0.015625)"/>
       <path id="DejaVuSans-68" d="M 3513 2113 
L 3513 0 
L 2938 0 
L 2938 2094 
Q 2938 2591 2744 2837 
Q 2550 3084 2163 3084 
Q 1697 3084 1428 2787 
Q 1159 2491 1159 1978 
L 1159 0 
L 581 0 
L 581 4863 
L 1159 4863 
L 1159 2956 
Q 1366 3272 1645 3428 
Q 1925 3584 2291 3584 
Q 2894 3584 3203 3211 
Q 3513 2838 3513 2113 
z
" transform="scale(0.015625)"/>
       <path id="DejaVuSans-67" d="M 2906 1791 
Q 2906 2416 2648 2759 
Q 2391 3103 1925 3103 
Q 1463 3103 1205 2759 
Q 947 2416 947 1791 
Q 947 1169 1205 825 
Q 1463 481 1925 481 
Q 2391 481 2648 825 
Q 2906 1169 2906 1791 
z
M 3481 434 
Q 3481 -459 3084 -895 
Q 2688 -1331 1869 -1331 
Q 1566 -1331 1297 -1286 
Q 1028 -1241 775 -1147 
L 775 -588 
Q 1028 -725 1275 -790 
Q 1522 -856 1778 -856 
Q 2344 -856 2625 -561 
Q 2906 -266 2906 331 
L 2906 616 
Q 2728 306 2450 153 
Q 2172 0 1784 0 
Q 1141 0 747 490 
Q 353 981 353 1791 
Q 353 2603 747 3093 
Q 1141 3584 1784 3584 
Q 2172 3584 2450 3431 
Q 2728 3278 2906 2969 
L 2906 3500 
L 3481 3500 
L 3481 434 
z
" transform="scale(0.015625)"/>
      </defs>
      <use xlink:href="#DejaVuSans-64"/>
      <use xlink:href="#DejaVuSans-69" x="63.476562"/>
      <use xlink:href="#DejaVuSans-73" x="91.259766"/>
      <use xlink:href="#DejaVuSans-6f" x="143.359375"/>
      <use xlink:href="#DejaVuSans-72" x="204.541016"/>
      <use xlink:href="#DejaVuSans-64" x="243.904297"/>
      <use xlink:href="#DejaVuSans-65" x="307.380859"/>
      <use xlink:href="#DejaVuSans-72" x="368.904297"/>
      <use xlink:href="#DejaVuSans-65" x="407.767578"/>
      <use xlink:href="#DejaVuSans-64" x="469.291016"/>
      <use xlink:href="#DejaVuSans-5f" x="532.767578"/>
      <use xlink:href="#DejaVuSans-63" x="582.767578"/>
      <use xlink:href="#DejaVuSans-68" x="637.748047"/>
      <use xlink:href="#DejaVuSans-61" x="701.126953"/>
      <use xlink:href="#DejaVuSans-72" x="762.40625"/>
      <use xlink:href="#DejaVuSans-67" x="801.769531"/>
      <use xlink:href="#DejaVuSans-69" x="865.246094"/>
      <use xlink:href="#DejaVuSans-6e" x="893.029297"/>
      <use xlink:href="#DejaVuSans-67" x="956.408203"/>
     </g>
    </g>
    <g id="line2d_17">
     <path d="M 345.223906 55.499344 
L 345.223906 55.499344 
L 350.223906 55.499344 
L 350.223906 55.499344 
L 355.223906 55.499344 
" style="fill: none; stroke: #ff7f0e; stroke-width: 1.5; stroke-linecap: square"/>
    </g>
    <g id="text_17">
     <!-- ordered_charging -->
     <g transform="translate(359.223906 57.249344) scale(0.05 -0.05)">
      <use xlink:href="#DejaVuSans-6f"/>
      <use xlink:href="#DejaVuSans-72" x="61.181641"/>
      <use xlink:href="#DejaVuSans-64" x="100.544922"/>
      <use xlink:href="#DejaVuSans-65" x="164.021484"/>
      <use xlink:href="#DejaVuSans-72" x="225.544922"/>
      <use xlink:href="#DejaVuSans-65" x="264.408203"/>
      <use xlink:href="#DejaVuSans-64" x="325.931641"/>
      <use xlink:href="#DejaVuSans-5f" x="389.408203"/>
      <use xlink:href="#DejaVuSans-63" x="439.408203"/>
      <use xlink:href="#DejaVuSans-68" x="494.388672"/>
      <use xlink:href="#DejaVuSans-61" x="557.767578"/>
      <use xlink:href="#DejaVuSans-72" x="619.046875"/>
      <use xlink:href="#DejaVuSans-67" x="658.410156"/>
      <use xlink:href="#DejaVuSans-69" x="721.886719"/>
      <use xlink:href="#DejaVuSans-6e" x="749.669922"/>
      <use xlink:href="#DejaVuSans-67" x="813.048828"/>
     </g>
    </g>
   </g>
  </g>
 </g>
 <defs>
  <clipPath id="p04010b1214">
   <rect x="57.6" y="41.472" width="357.12" height="266.112"/>
  </clipPath>
 </defs>
</svg>
