<?xml version="1.0" encoding="utf-8" standalone="no"?>
<!DOCTYPE svg PUBLIC "-//W3C//DTD SVG 1.1//EN"
  "http://www.w3.org/Graphics/SVG/1.1/DTD/svg11.dtd">
<svg xmlns:xlink="http://www.w3.org/1999/xlink" width="460.8pt" height="345.6pt" viewBox="0 0 460.8 345.6" xmlns="http://www.w3.org/2000/svg" version="1.1">
 <metadata>
  <rdf:RDF xmlns:dc="http://purl.org/dc/elements/1.1/" xmlns:cc="http://creativecommons.org/ns#" xmlns:rdf="http://www.w3.org/1999/02/22-rdf-syntax-ns#">
   <cc:Work>
    <dc:type rdf:resource="http://purl.org/dc/dcmitype/StillImage"/>
    <dc:date>2023-04-27T16:29:34.244176</dc:date>
    <dc:format>image/svg+xml</dc:format>
    <dc:creator>
     <cc:Agent>
      <dc:title>Matplotlib v3.6.1, https://matplotlib.org/</dc:title>
     </cc:Agent>
    </dc:creator>
   </cc:Work>
  </rdf:RDF>
 </metadata>
 <defs>
  <style type="text/css">*{stroke-linejoin: round; stroke-linecap: butt}</style>
 </defs>
 <g id="figure_1">
  <g id="patch_1">
   <path d="M 0 345.6 
L 460.8 345.6 
L 460.8 0 
L 0 0 
z
" style="fill: #ffffff"/>
  </g>
  <g id="axes_1">
   <g id="patch_2">
    <path d="M 57.6 162.432 
L 219.927273 162.432 
L 219.927273 41.472 
L 57.6 41.472 
z
" style="fill: #ffffff"/>
   </g>
   <g id="matplotlib.axis_1">
    <g id="xtick_1">
     <g id="line2d_1">
      <defs>
       <path id="mc2b4d5701e" d="M 0 0 
L 0 3.5 
" style="stroke: #000000; stroke-width: 0.8"/>
      </defs>
      <g>
       <use xlink:href="#mc2b4d5701e" x="64.978512" y="162.432" style="stroke: #000000; stroke-width: 0.8"/>
      </g>
     </g>
     <g id="text_1">
      <!-- 0 -->
      <g transform="translate(63.387887 173.231219) scale(0.05 -0.05)">
       <defs>
        <path id="DejaVuSans-30" d="M 2034 4250 
Q 1547 4250 1301 3770 
Q 1056 3291 1056 2328 
Q 1056 1369 1301 889 
Q 1547 409 2034 409 
Q 2525 409 2770 889 
Q 3016 1369 3016 2328 
Q 3016 3291 2770 3770 
Q 2525 4250 2034 4250 
z
M 2034 4750 
Q 2819 4750 3233 4129 
Q 3647 3509 3647 2328 
Q 3647 1150 3233 529 
Q 2819 -91 2034 -91 
Q 1250 -91 836 529 
Q 422 1150 422 2328 
Q 422 3509 836 4129 
Q 1250 4750 2034 4750 
z
" transform="scale(0.015625)"/>
       </defs>
       <use xlink:href="#DejaVuSans-30"/>
      </g>
     </g>
    </g>
    <g id="xtick_2">
     <g id="line2d_2">
      <g>
       <use xlink:href="#mc2b4d5701e" x="103.812788" y="162.432" style="stroke: #000000; stroke-width: 0.8"/>
      </g>
     </g>
     <g id="text_2">
      <!-- 25 -->
      <g transform="translate(100.631538 173.231219) scale(0.05 -0.05)">
       <defs>
        <path id="DejaVuSans-32" d="M 1228 531 
L 3431 531 
L 3431 0 
L 469 0 
L 469 531 
Q 828 903 1448 1529 
Q 2069 2156 2228 2338 
Q 2531 2678 2651 2914 
Q 2772 3150 2772 3378 
Q 2772 3750 2511 3984 
Q 2250 4219 1831 4219 
Q 1534 4219 1204 4116 
Q 875 4013 500 3803 
L 500 4441 
Q 881 4594 1212 4672 
Q 1544 4750 1819 4750 
Q 2544 4750 2975 4387 
Q 3406 4025 3406 3419 
Q 3406 3131 3298 2873 
Q 3191 2616 2906 2266 
Q 2828 2175 2409 1742 
Q 1991 1309 1228 531 
z
" transform="scale(0.015625)"/>
        <path id="DejaVuSans-35" d="M 691 4666 
L 3169 4666 
L 3169 4134 
L 1269 4134 
L 1269 2991 
Q 1406 3038 1543 3061 
Q 1681 3084 1819 3084 
Q 2600 3084 3056 2656 
Q 3513 2228 3513 1497 
Q 3513 744 3044 326 
Q 2575 -91 1722 -91 
Q 1428 -91 1123 -41 
Q 819 9 494 109 
L 494 744 
Q 775 591 1075 516 
Q 1375 441 1709 441 
Q 2250 441 2565 725 
Q 2881 1009 2881 1497 
Q 2881 1984 2565 2268 
Q 2250 2553 1709 2553 
Q 1456 2553 1204 2497 
Q 953 2441 691 2322 
L 691 4666 
z
" transform="scale(0.015625)"/>
       </defs>
       <use xlink:href="#DejaVuSans-32"/>
       <use xlink:href="#DejaVuSans-35" x="63.623047"/>
      </g>
     </g>
    </g>
    <g id="xtick_3">
     <g id="line2d_3">
      <g>
       <use xlink:href="#mc2b4d5701e" x="142.647064" y="162.432" style="stroke: #000000; stroke-width: 0.8"/>
      </g>
     </g>
     <g id="text_3">
      <!-- 50 -->
      <g transform="translate(139.465814 173.231219) scale(0.05 -0.05)">
       <use xlink:href="#DejaVuSans-35"/>
       <use xlink:href="#DejaVuSans-30" x="63.623047"/>
      </g>
     </g>
    </g>
    <g id="xtick_4">
     <g id="line2d_4">
      <g>
       <use xlink:href="#mc2b4d5701e" x="181.48134" y="162.432" style="stroke: #000000; stroke-width: 0.8"/>
      </g>
     </g>
     <g id="text_4">
      <!-- 75 -->
      <g transform="translate(178.30009 173.231219) scale(0.05 -0.05)">
       <defs>
        <path id="DejaVuSans-37" d="M 525 4666 
L 3525 4666 
L 3525 4397 
L 1831 0 
L 1172 0 
L 2766 4134 
L 525 4134 
L 525 4666 
z
" transform="scale(0.015625)"/>
       </defs>
       <use xlink:href="#DejaVuSans-37"/>
       <use xlink:href="#DejaVuSans-35" x="63.623047"/>
      </g>
     </g>
    </g>
    <g id="text_5">
     <!-- t -->
     <g transform="translate(217.967116 182.070281) scale(0.05 -0.05)">
      <defs>
       <path id="DejaVuSans-74" d="M 1172 4494 
L 1172 3500 
L 2356 3500 
L 2356 3053 
L 1172 3053 
L 1172 1153 
Q 1172 725 1289 603 
Q 1406 481 1766 481 
L 2356 481 
L 2356 0 
L 1766 0 
Q 1100 0 847 248 
Q 594 497 594 1153 
L 594 3053 
L 172 3053 
L 172 3500 
L 594 3500 
L 594 4494 
L 1172 4494 
z
" transform="scale(0.015625)"/>
      </defs>
      <use xlink:href="#DejaVuSans-74"/>
     </g>
    </g>
   </g>
   <g id="matplotlib.axis_2">
    <g id="ytick_1">
     <g id="line2d_5">
      <defs>
       <path id="m2418580a54" d="M 0 0 
L -3.5 0 
" style="stroke: #000000; stroke-width: 0.8"/>
      </defs>
      <g>
       <use xlink:href="#m2418580a54" x="57.6" y="156.933818" style="stroke: #000000; stroke-width: 0.8"/>
      </g>
     </g>
     <g id="text_6">
      <!-- 0 -->
      <g transform="translate(47.41875 158.833428) scale(0.05 -0.05)">
       <use xlink:href="#DejaVuSans-30"/>
      </g>
     </g>
    </g>
    <g id="ytick_2">
     <g id="line2d_6">
      <g>
       <use xlink:href="#m2418580a54" x="57.6" y="117.488518" style="stroke: #000000; stroke-width: 0.8"/>
      </g>
     </g>
     <g id="text_7">
      <!-- 2000 -->
      <g transform="translate(37.875 119.388127) scale(0.05 -0.05)">
       <use xlink:href="#DejaVuSans-32"/>
       <use xlink:href="#DejaVuSans-30" x="63.623047"/>
       <use xlink:href="#DejaVuSans-30" x="127.246094"/>
       <use xlink:href="#DejaVuSans-30" x="190.869141"/>
      </g>
     </g>
    </g>
    <g id="ytick_3">
     <g id="line2d_7">
      <g>
       <use xlink:href="#m2418580a54" x="57.6" y="78.043217" style="stroke: #000000; stroke-width: 0.8"/>
      </g>
     </g>
     <g id="text_8">
      <!-- 4000 -->
      <g transform="translate(37.875 79.942827) scale(0.05 -0.05)">
       <defs>
        <path id="DejaVuSans-34" d="M 2419 4116 
L 825 1625 
L 2419 1625 
L 2419 4116 
z
M 2253 4666 
L 3047 4666 
L 3047 1625 
L 3713 1625 
L 3713 1100 
L 3047 1100 
L 3047 0 
L 2419 0 
L 2419 1100 
L 313 1100 
L 313 1709 
L 2253 4666 
z
" transform="scale(0.015625)"/>
       </defs>
       <use xlink:href="#DejaVuSans-34"/>
       <use xlink:href="#DejaVuSans-30" x="63.623047"/>
       <use xlink:href="#DejaVuSans-30" x="127.246094"/>
       <use xlink:href="#DejaVuSans-30" x="190.869141"/>
      </g>
     </g>
    </g>
    <g id="text_9">
     <!-- d_EVA -->
     <g transform="translate(32.696094 56.827469) rotate(-90) scale(0.05 -0.05)">
      <defs>
       <path id="DejaVuSans-64" d="M 2906 2969 
L 2906 4863 
L 3481 4863 
L 3481 0 
L 2906 0 
L 2906 525 
Q 2725 213 2448 61 
Q 2172 -91 1784 -91 
Q 1150 -91 751 415 
Q 353 922 353 1747 
Q 353 2572 751 3078 
Q 1150 3584 1784 3584 
Q 2172 3584 2448 3432 
Q 2725 3281 2906 2969 
z
M 947 1747 
Q 947 1113 1208 752 
Q 1469 391 1925 391 
Q 2381 391 2643 752 
Q 2906 1113 2906 1747 
Q 2906 2381 2643 2742 
Q 2381 3103 1925 3103 
Q 1469 3103 1208 2742 
Q 947 2381 947 1747 
z
" transform="scale(0.015625)"/>
       <path id="DejaVuSans-5f" d="M 3263 -1063 
L 3263 -1509 
L -63 -1509 
L -63 -1063 
L 3263 -1063 
z
" transform="scale(0.015625)"/>
       <path id="DejaVuSans-45" d="M 628 4666 
L 3578 4666 
L 3578 4134 
L 1259 4134 
L 1259 2753 
L 3481 2753 
L 3481 2222 
L 1259 2222 
L 1259 531 
L 3634 531 
L 3634 0 
L 628 0 
L 628 4666 
z
" transform="scale(0.015625)"/>
       <path id="DejaVuSans-56" d="M 1831 0 
L 50 4666 
L 709 4666 
L 2188 738 
L 3669 4666 
L 4325 4666 
L 2547 0 
L 1831 0 
z
" transform="scale(0.015625)"/>
       <path id="DejaVuSans-41" d="M 2188 4044 
L 1331 1722 
L 3047 1722 
L 2188 4044 
z
M 1831 4666 
L 2547 4666 
L 4325 0 
L 3669 0 
L 3244 1197 
L 1141 1197 
L 716 0 
L 50 0 
L 1831 4666 
z
" transform="scale(0.015625)"/>
      </defs>
      <use xlink:href="#DejaVuSans-64"/>
      <use xlink:href="#DejaVuSans-5f" x="63.476562"/>
      <use xlink:href="#DejaVuSans-45" x="113.476562"/>
      <use xlink:href="#DejaVuSans-56" x="176.660156"/>
      <use xlink:href="#DejaVuSans-41" x="238.693359"/>
     </g>
    </g>
   </g>
   <g id="line2d_8">
    <path d="M 64.978512 156.933818 
L 85.172336 156.933818 
L 85.172336 156.756314 
L 86.725707 156.756314 
L 86.725707 156.490059 
L 88.279078 156.490059 
L 88.279078 156.046299 
L 89.832449 156.046299 
L 89.832449 155.513787 
L 91.38582 155.513787 
L 91.38582 154.71502 
L 92.939191 154.71502 
L 92.939191 153.649997 
L 94.492562 153.649997 
L 94.492562 152.141214 
L 96.045933 152.141214 
L 96.045933 150.09992 
L 97.599304 150.09992 
L 97.599304 148.324881 
L 99.152675 148.324881 
L 99.152675 145.839827 
L 100.706046 145.839827 
L 100.706046 144.5973 
L 102.259417 144.5973 
L 102.259417 144.064789 
L 103.812788 144.064789 
L 103.812788 146.372339 
L 105.366159 146.372339 
L 105.366159 146.017331 
L 108.472901 145.928579 
L 108.472901 146.194835 
L 111.579643 146.106083 
L 111.579643 149.833664 
L 113.133014 149.833664 
L 113.133014 150.54368 
L 114.686385 150.54368 
L 114.686385 152.40747 
L 116.239756 152.40747 
L 116.239756 156.57881 
L 117.793127 156.57881 
L 117.793127 156.401307 
L 119.346498 156.401307 
L 119.346498 156.667562 
L 120.89987 156.667562 
L 120.89987 156.933818 
L 207.888647 156.845066 
L 207.888647 156.667562 
L 209.442018 156.667562 
L 209.442018 156.401307 
L 210.995389 156.401307 
L 210.995389 155.957547 
L 212.54876 155.957547 
L 212.54876 155.957547 
" clip-path="url(#p6f0c92e13e)" style="fill: none; stroke: #1f77b4; stroke-width: 1.5; stroke-linecap: square"/>
   </g>
   <g id="line2d_9">
    <path d="M 64.978512 156.933818 
L 64.978512 151.253695 
L 66.531883 151.253695 
L 66.531883 145.573572 
L 68.085254 145.573572 
L 68.085254 139.893448 
L 69.638625 139.893448 
L 69.638625 134.479581 
L 71.191997 134.479581 
L 71.191997 129.154465 
L 72.745368 129.154465 
L 72.745368 126.403156 
L 74.298739 126.403156 
L 74.298739 124.006854 
L 75.85211 124.006854 
L 75.85211 122.764327 
L 77.405481 122.764327 
L 77.405481 122.054311 
L 78.958852 122.054311 
L 78.958852 121.433048 
L 97.599304 121.433048 
L 97.599304 122.143063 
L 99.152675 122.143063 
L 99.152675 122.764327 
L 100.706046 122.764327 
L 100.706046 124.716869 
L 102.259417 124.716869 
L 102.259417 127.556931 
L 103.812788 127.556931 
L 103.812788 133.05955 
L 105.366159 133.05955 
L 105.366159 135.544604 
L 106.91953 135.544604 
L 106.91953 138.029658 
L 108.472901 138.029658 
L 108.472901 140.692216 
L 110.026272 140.692216 
L 110.026272 142.644758 
L 111.579643 142.644758 
L 111.579643 147.614866 
L 113.133014 147.614866 
L 113.133014 149.389904 
L 114.686385 149.389904 
L 114.686385 151.96371 
L 116.239756 151.96371 
L 116.239756 156.312555 
L 119.346498 156.312555 
L 119.346498 156.667562 
L 120.89987 156.667562 
L 120.89987 156.933818 
L 156.627403 156.845066 
L 156.627403 156.756314 
L 159.734145 156.667562 
L 159.734145 156.401307 
L 161.287516 156.401307 
L 161.287516 156.046299 
L 162.840887 156.046299 
L 162.840887 155.780043 
L 164.394258 155.780043 
L 164.394258 155.425035 
L 165.947629 155.425035 
L 165.947629 154.981276 
L 167.501 154.981276 
L 167.501 154.360012 
L 169.054371 154.360012 
L 169.054371 153.561245 
L 170.607742 153.561245 
L 170.607742 152.584974 
L 172.161114 152.584974 
L 172.161114 151.253695 
L 173.714485 151.253695 
L 173.714485 149.833664 
L 175.267856 149.833664 
L 175.267856 148.058626 
L 176.821227 148.058626 
L 176.821227 146.017331 
L 178.374598 146.017331 
L 178.374598 143.798533 
L 179.927969 143.798533 
L 179.927969 140.86972 
L 181.48134 140.86972 
L 181.48134 137.408394 
L 183.034711 137.408394 
L 183.034711 133.237054 
L 184.588082 133.237054 
L 184.588082 128.44445 
L 186.141453 128.44445 
L 186.141453 123.38559 
L 187.694824 123.38559 
L 187.694824 118.237978 
L 189.248195 118.237978 
L 189.248195 112.912863 
L 190.801566 112.912863 
L 190.801566 107.498995 
L 192.354937 107.498995 
L 192.354937 101.996376 
L 193.908308 101.996376 
L 193.908308 96.67126 
L 195.461679 96.67126 
L 195.461679 91.168641 
L 197.01505 91.168641 
L 197.01505 85.843525 
L 198.568421 85.843525 
L 198.568421 80.607162 
L 200.121792 80.607162 
L 200.121792 75.637054 
L 201.675163 75.637054 
L 201.675163 70.755698 
L 203.228534 70.755698 
L 203.228534 66.140598 
L 204.781905 66.140598 
L 204.781905 61.791753 
L 206.335276 61.791753 
L 206.335276 57.709165 
L 207.888647 57.709165 
L 207.888647 53.892832 
L 209.442018 53.892832 
L 209.442018 50.342755 
L 210.995389 50.342755 
L 210.995389 46.970182 
L 212.54876 46.970182 
L 212.54876 46.970182 
" clip-path="url(#p6f0c92e13e)" style="fill: none; stroke: #ff7f0e; stroke-width: 1.5; stroke-linecap: square"/>
   </g>
   <g id="line2d_10">
    <path d="M 64.978512 156.933818 
L 64.978512 155.436759 
L 66.531883 155.436759 
L 66.531883 153.991502 
L 68.085254 153.991502 
L 68.085254 152.64997 
L 69.638625 152.64997 
L 69.638625 151.413803 
L 71.191997 151.413803 
L 71.191997 150.353704 
L 72.745368 150.353704 
L 72.745368 149.083116 
L 74.298739 149.083116 
L 74.298739 147.645429 
L 75.85211 147.645429 
L 75.85211 146.056632 
L 77.405481 146.056632 
L 77.405481 144.311802 
L 78.958852 144.311802 
L 78.958852 142.952045 
L 80.512223 142.952045 
L 80.512223 140.813125 
L 82.065594 140.813125 
L 82.065594 138.565718 
L 83.618965 138.565718 
L 83.618965 136.632031 
L 85.172336 136.632031 
L 85.172336 134.980609 
L 86.725707 134.980609 
L 86.725707 132.854083 
L 88.279078 132.854083 
L 88.279078 130.908573 
L 89.832449 130.908573 
L 89.832449 129.272865 
L 91.38582 129.272865 
L 91.38582 127.544286 
L 92.939191 127.544286 
L 92.939191 125.712787 
L 94.492562 125.712787 
L 94.492562 123.726075 
L 96.045933 123.726075 
L 96.045933 121.433102 
L 97.599304 121.433102 
L 97.599304 122.143115 
L 99.152675 122.143115 
L 99.152675 122.764374 
L 100.706046 122.764374 
L 100.706046 124.716912 
L 102.259417 124.716912 
L 102.259417 127.556968 
L 103.812788 127.556968 
L 103.812788 133.059582 
L 105.366159 133.059582 
L 105.366159 135.544631 
L 106.91953 135.544631 
L 106.91953 138.029679 
L 108.472901 138.029679 
L 108.472901 140.692231 
L 110.026272 140.692231 
L 110.026272 142.644766 
L 111.579643 142.644766 
L 111.579643 147.614868 
L 113.133014 147.614868 
L 113.133014 149.389896 
L 114.686385 149.389896 
L 114.686385 151.9637 
L 116.239756 151.9637 
L 116.239756 156.312543 
L 119.346498 156.312541 
L 119.346498 156.667546 
L 120.89987 156.667546 
L 120.89987 156.933801 
L 164.394258 156.93379 
L 164.394258 156.674974 
L 165.947629 156.674974 
L 165.947629 156.385809 
L 167.501 156.385809 
L 167.501 156.011062 
L 169.054371 156.011062 
L 169.054371 155.559355 
L 170.607742 155.559355 
L 170.607742 155.028538 
L 172.161114 155.028538 
L 172.161114 154.319711 
L 173.714485 154.319711 
L 173.714485 153.616176 
L 175.267856 153.616176 
L 175.267856 152.74109 
L 176.821227 152.74109 
L 176.821227 151.69909 
L 178.374598 151.69909 
L 178.374598 150.556956 
L 179.927969 150.556956 
L 179.927969 149.116961 
L 181.48134 149.116961 
L 181.48134 147.473945 
L 183.034711 147.473945 
L 183.034711 145.506636 
L 184.588082 145.506636 
L 184.588082 143.358789 
L 186.141453 143.358789 
L 186.141453 141.129305 
L 187.694824 141.129305 
L 187.694824 138.877587 
L 189.248195 138.877587 
L 189.248195 136.554052 
L 190.801566 136.554052 
L 190.801566 134.194397 
L 192.354937 134.194397 
L 192.354937 131.828846 
L 193.908308 131.828846 
L 193.908308 129.355031 
L 195.461679 129.355031 
L 195.461679 126.808884 
L 197.01505 126.808884 
L 197.01505 124.273931 
L 198.568421 124.273931 
L 198.568421 121.703982 
L 200.121792 121.703982 
L 200.121792 119.1119 
L 201.675163 119.1119 
L 201.675163 116.48444 
L 203.228534 116.48444 
L 203.228534 113.803548 
L 204.781905 113.803548 
L 204.781905 111.034064 
L 206.335276 111.034064 
L 206.335276 108.134434 
L 207.888647 108.134434 
L 207.888647 105.072044 
L 209.442018 105.072044 
L 209.442018 102.049941 
L 210.995389 102.049941 
L 210.995389 99.093168 
L 212.54876 99.093168 
L 212.54876 99.093168 
" clip-path="url(#p6f0c92e13e)" style="fill: none; stroke: #2ca02c; stroke-width: 1.5; stroke-linecap: square"/>
   </g>
   <g id="patch_3">
    <path d="M 57.6 162.432 
L 57.6 41.472 
" style="fill: none; stroke: #000000; stroke-width: 0.8; stroke-linejoin: miter; stroke-linecap: square"/>
   </g>
   <g id="patch_4">
    <path d="M 219.927273 162.432 
L 219.927273 41.472 
" style="fill: none; stroke: #000000; stroke-width: 0.8; stroke-linejoin: miter; stroke-linecap: square"/>
   </g>
   <g id="patch_5">
    <path d="M 57.6 162.432 
L 219.927273 162.432 
" style="fill: none; stroke: #000000; stroke-width: 0.8; stroke-linejoin: miter; stroke-linecap: square"/>
   </g>
   <g id="patch_6">
    <path d="M 57.6 41.472 
L 219.927273 41.472 
" style="fill: none; stroke: #000000; stroke-width: 0.8; stroke-linejoin: miter; stroke-linecap: square"/>
   </g>
   <g id="text_10">
    <!-- NUM1 -->
    <g transform="translate(128.336918 35.472) scale(0.07 -0.07)">
     <defs>
      <path id="DejaVuSans-4e" d="M 628 4666 
L 1478 4666 
L 3547 763 
L 3547 4666 
L 4159 4666 
L 4159 0 
L 3309 0 
L 1241 3903 
L 1241 0 
L 628 0 
L 628 4666 
z
" transform="scale(0.015625)"/>
      <path id="DejaVuSans-55" d="M 556 4666 
L 1191 4666 
L 1191 1831 
Q 1191 1081 1462 751 
Q 1734 422 2344 422 
Q 2950 422 3222 751 
Q 3494 1081 3494 1831 
L 3494 4666 
L 4128 4666 
L 4128 1753 
Q 4128 841 3676 375 
Q 3225 -91 2344 -91 
Q 1459 -91 1007 375 
Q 556 841 556 1753 
L 556 4666 
z
" transform="scale(0.015625)"/>
      <path id="DejaVuSans-4d" d="M 628 4666 
L 1569 4666 
L 2759 1491 
L 3956 4666 
L 4897 4666 
L 4897 0 
L 4281 0 
L 4281 4097 
L 3078 897 
L 2444 897 
L 1241 4097 
L 1241 0 
L 628 0 
L 628 4666 
z
" transform="scale(0.015625)"/>
      <path id="DejaVuSans-31" d="M 794 531 
L 1825 531 
L 1825 4091 
L 703 3866 
L 703 4441 
L 1819 4666 
L 2450 4666 
L 2450 531 
L 3481 531 
L 3481 0 
L 794 0 
L 794 531 
z
" transform="scale(0.015625)"/>
     </defs>
     <use xlink:href="#DejaVuSans-4e"/>
     <use xlink:href="#DejaVuSans-55" x="74.804688"/>
     <use xlink:href="#DejaVuSans-4d" x="147.998047"/>
     <use xlink:href="#DejaVuSans-31" x="234.277344"/>
    </g>
   </g>
   <g id="legend_1">
    <g id="patch_7">
     <path d="M 181.903054 67.906375 
L 216.427273 67.906375 
Q 217.427273 67.906375 217.427273 66.906375 
L 217.427273 44.972 
Q 217.427273 43.972 216.427273 43.972 
L 181.903054 43.972 
Q 180.903054 43.972 180.903054 44.972 
L 180.903054 66.906375 
Q 180.903054 67.906375 181.903054 67.906375 
z
" style="fill: #ffffff; opacity: 0.8; stroke: #cccccc; stroke-linejoin: miter"/>
    </g>
    <g id="line2d_11">
     <path d="M 182.903054 48.021219 
L 182.903054 48.021219 
L 187.903054 48.021219 
L 187.903054 48.021219 
L 192.903054 48.021219 
" style="fill: none; stroke: #1f77b4; stroke-width: 1.5; stroke-linecap: square"/>
    </g>
    <g id="text_11">
     <!-- EVA_lb -->
     <g transform="translate(196.903054 49.771219) scale(0.05 -0.05)">
      <defs>
       <path id="DejaVuSans-6c" d="M 603 4863 
L 1178 4863 
L 1178 0 
L 603 0 
L 603 4863 
z
" transform="scale(0.015625)"/>
       <path id="DejaVuSans-62" d="M 3116 1747 
Q 3116 2381 2855 2742 
Q 2594 3103 2138 3103 
Q 1681 3103 1420 2742 
Q 1159 2381 1159 1747 
Q 1159 1113 1420 752 
Q 1681 391 2138 391 
Q 2594 391 2855 752 
Q 3116 1113 3116 1747 
z
M 1159 2969 
Q 1341 3281 1617 3432 
Q 1894 3584 2278 3584 
Q 2916 3584 3314 3078 
Q 3713 2572 3713 1747 
Q 3713 922 3314 415 
Q 2916 -91 2278 -91 
Q 1894 -91 1617 61 
Q 1341 213 1159 525 
L 1159 0 
L 581 0 
L 581 4863 
L 1159 4863 
L 1159 2969 
z
" transform="scale(0.015625)"/>
      </defs>
      <use xlink:href="#DejaVuSans-45"/>
      <use xlink:href="#DejaVuSans-56" x="63.183594"/>
      <use xlink:href="#DejaVuSans-41" x="125.216797"/>
      <use xlink:href="#DejaVuSans-5f" x="193.625"/>
      <use xlink:href="#DejaVuSans-6c" x="243.625"/>
      <use xlink:href="#DejaVuSans-62" x="271.408203"/>
     </g>
    </g>
    <g id="line2d_12">
     <path d="M 182.903054 55.499344 
L 182.903054 55.499344 
L 187.903054 55.499344 
L 187.903054 55.499344 
L 192.903054 55.499344 
" style="fill: none; stroke: #ff7f0e; stroke-width: 1.5; stroke-linecap: square"/>
    </g>
    <g id="text_12">
     <!-- EVA_ub -->
     <g transform="translate(196.903054 57.249344) scale(0.05 -0.05)">
      <defs>
       <path id="DejaVuSans-75" d="M 544 1381 
L 544 3500 
L 1119 3500 
L 1119 1403 
Q 1119 906 1312 657 
Q 1506 409 1894 409 
Q 2359 409 2629 706 
Q 2900 1003 2900 1516 
L 2900 3500 
L 3475 3500 
L 3475 0 
L 2900 0 
L 2900 538 
Q 2691 219 2414 64 
Q 2138 -91 1772 -91 
Q 1169 -91 856 284 
Q 544 659 544 1381 
z
M 1991 3584 
L 1991 3584 
z
" transform="scale(0.015625)"/>
      </defs>
      <use xlink:href="#DejaVuSans-45"/>
      <use xlink:href="#DejaVuSans-56" x="63.183594"/>
      <use xlink:href="#DejaVuSans-41" x="125.216797"/>
      <use xlink:href="#DejaVuSans-5f" x="193.625"/>
      <use xlink:href="#DejaVuSans-75" x="243.625"/>
      <use xlink:href="#DejaVuSans-62" x="307.003906"/>
     </g>
    </g>
    <g id="line2d_13">
     <path d="M 182.903054 62.977469 
L 182.903054 62.977469 
L 187.903054 62.977469 
L 187.903054 62.977469 
L 192.903054 62.977469 
" style="fill: none; stroke: #2ca02c; stroke-width: 1.5; stroke-linecap: square"/>
    </g>
    <g id="text_13">
     <!-- EVA_C -->
     <g transform="translate(196.903054 64.727469) scale(0.05 -0.05)">
      <defs>
       <path id="DejaVuSans-43" d="M 4122 4306 
L 4122 3641 
Q 3803 3938 3442 4084 
Q 3081 4231 2675 4231 
Q 1875 4231 1450 3742 
Q 1025 3253 1025 2328 
Q 1025 1406 1450 917 
Q 1875 428 2675 428 
Q 3081 428 3442 575 
Q 3803 722 4122 1019 
L 4122 359 
Q 3791 134 3420 21 
Q 3050 -91 2638 -91 
Q 1578 -91 968 557 
Q 359 1206 359 2328 
Q 359 3453 968 4101 
Q 1578 4750 2638 4750 
Q 3056 4750 3426 4639 
Q 3797 4528 4122 4306 
z
" transform="scale(0.015625)"/>
      </defs>
      <use xlink:href="#DejaVuSans-45"/>
      <use xlink:href="#DejaVuSans-56" x="63.183594"/>
      <use xlink:href="#DejaVuSans-41" x="125.216797"/>
      <use xlink:href="#DejaVuSans-5f" x="193.625"/>
      <use xlink:href="#DejaVuSans-43" x="243.625"/>
     </g>
    </g>
   </g>
  </g>
  <g id="axes_2">
   <g id="patch_8">
    <path d="M 252.392727 162.432 
L 414.72 162.432 
L 414.72 41.472 
L 252.392727 41.472 
z
" style="fill: #ffffff"/>
   </g>
   <g id="matplotlib.axis_3">
    <g id="xtick_5">
     <g id="line2d_14">
      <g>
       <use xlink:href="#mc2b4d5701e" x="259.77124" y="162.432" style="stroke: #000000; stroke-width: 0.8"/>
      </g>
     </g>
     <g id="text_14">
      <!-- 0 -->
      <g transform="translate(258.180615 173.231219) scale(0.05 -0.05)">
       <use xlink:href="#DejaVuSans-30"/>
      </g>
     </g>
    </g>
    <g id="xtick_6">
     <g id="line2d_15">
      <g>
       <use xlink:href="#mc2b4d5701e" x="298.605515" y="162.432" style="stroke: #000000; stroke-width: 0.8"/>
      </g>
     </g>
     <g id="text_15">
      <!-- 25 -->
      <g transform="translate(295.424265 173.231219) scale(0.05 -0.05)">
       <use xlink:href="#DejaVuSans-32"/>
       <use xlink:href="#DejaVuSans-35" x="63.623047"/>
      </g>
     </g>
    </g>
    <g id="xtick_7">
     <g id="line2d_16">
      <g>
       <use xlink:href="#mc2b4d5701e" x="337.439791" y="162.432" style="stroke: #000000; stroke-width: 0.8"/>
      </g>
     </g>
     <g id="text_16">
      <!-- 50 -->
      <g transform="translate(334.258541 173.231219) scale(0.05 -0.05)">
       <use xlink:href="#DejaVuSans-35"/>
       <use xlink:href="#DejaVuSans-30" x="63.623047"/>
      </g>
     </g>
    </g>
    <g id="xtick_8">
     <g id="line2d_17">
      <g>
       <use xlink:href="#mc2b4d5701e" x="376.274067" y="162.432" style="stroke: #000000; stroke-width: 0.8"/>
      </g>
     </g>
     <g id="text_17">
      <!-- 75 -->
      <g transform="translate(373.092817 173.231219) scale(0.05 -0.05)">
       <use xlink:href="#DejaVuSans-37"/>
       <use xlink:href="#DejaVuSans-35" x="63.623047"/>
      </g>
     </g>
    </g>
    <g id="text_18">
     <!-- t -->
     <g transform="translate(412.759844 182.070281) scale(0.05 -0.05)">
      <use xlink:href="#DejaVuSans-74"/>
     </g>
    </g>
   </g>
   <g id="matplotlib.axis_4">
    <g id="ytick_4">
     <g id="line2d_18">
      <g>
       <use xlink:href="#m2418580a54" x="252.392727" y="156.933818" style="stroke: #000000; stroke-width: 0.8"/>
      </g>
     </g>
     <g id="text_19">
      <!-- 0 -->
      <g transform="translate(242.211477 158.833428) scale(0.05 -0.05)">
       <use xlink:href="#DejaVuSans-30"/>
      </g>
     </g>
    </g>
    <g id="ytick_5">
     <g id="line2d_19">
      <g>
       <use xlink:href="#m2418580a54" x="252.392727" y="125.010889" style="stroke: #000000; stroke-width: 0.8"/>
      </g>
     </g>
     <g id="text_20">
      <!-- 5000 -->
      <g transform="translate(232.667727 126.910499) scale(0.05 -0.05)">
       <use xlink:href="#DejaVuSans-35"/>
       <use xlink:href="#DejaVuSans-30" x="63.623047"/>
       <use xlink:href="#DejaVuSans-30" x="127.246094"/>
       <use xlink:href="#DejaVuSans-30" x="190.869141"/>
      </g>
     </g>
    </g>
    <g id="ytick_6">
     <g id="line2d_20">
      <g>
       <use xlink:href="#m2418580a54" x="252.392727" y="93.08796" style="stroke: #000000; stroke-width: 0.8"/>
      </g>
     </g>
     <g id="text_21">
      <!-- 10000 -->
      <g transform="translate(229.486477 94.98757) scale(0.05 -0.05)">
       <use xlink:href="#DejaVuSans-31"/>
       <use xlink:href="#DejaVuSans-30" x="63.623047"/>
       <use xlink:href="#DejaVuSans-30" x="127.246094"/>
       <use xlink:href="#DejaVuSans-30" x="190.869141"/>
       <use xlink:href="#DejaVuSans-30" x="254.492188"/>
      </g>
     </g>
    </g>
    <g id="ytick_7">
     <g id="line2d_21">
      <g>
       <use xlink:href="#m2418580a54" x="252.392727" y="61.165031" style="stroke: #000000; stroke-width: 0.8"/>
      </g>
     </g>
     <g id="text_22">
      <!-- 15000 -->
      <g transform="translate(229.486477 63.064641) scale(0.05 -0.05)">
       <use xlink:href="#DejaVuSans-31"/>
       <use xlink:href="#DejaVuSans-35" x="63.623047"/>
       <use xlink:href="#DejaVuSans-30" x="127.246094"/>
       <use xlink:href="#DejaVuSans-30" x="190.869141"/>
       <use xlink:href="#DejaVuSans-30" x="254.492188"/>
      </g>
     </g>
    </g>
    <g id="text_23">
     <!-- d_EVA -->
     <g transform="translate(224.307571 56.827469) rotate(-90) scale(0.05 -0.05)">
      <use xlink:href="#DejaVuSans-64"/>
      <use xlink:href="#DejaVuSans-5f" x="63.476562"/>
      <use xlink:href="#DejaVuSans-45" x="113.476562"/>
      <use xlink:href="#DejaVuSans-56" x="176.660156"/>
      <use xlink:href="#DejaVuSans-41" x="238.693359"/>
     </g>
    </g>
   </g>
   <g id="line2d_22">
    <path d="M 259.77124 156.933818 
L 278.411692 156.847626 
L 278.411692 156.761434 
L 279.965063 156.761434 
L 279.965063 156.646512 
L 281.518434 156.646512 
L 281.518434 156.531589 
L 283.071805 156.531589 
L 283.071805 156.330475 
L 284.625176 156.330475 
L 284.625176 155.870785 
L 286.178547 155.870785 
L 286.178547 155.324903 
L 287.731918 155.324903 
L 287.731918 154.376792 
L 289.285289 154.376792 
L 289.285289 152.934514 
L 290.83866 152.934514 
L 290.83866 151.147468 
L 292.392031 151.147468 
L 292.392031 149.182293 
L 293.945402 149.182293 
L 293.945402 146.269006 
L 295.498773 146.269006 
L 295.498773 143.84414 
L 297.052144 143.84414 
L 297.052144 141.476736 
L 298.605515 141.476736 
L 298.605515 140.752724 
L 300.158886 140.752724 
L 300.158886 142.120302 
L 301.712258 142.120302 
L 301.712258 144.447484 
L 303.265629 144.447484 
L 303.265629 146.941303 
L 304.819 146.941303 
L 304.819 149.77989 
L 306.372371 149.77989 
L 306.372371 151.676112 
L 307.925742 151.676112 
L 307.925742 153.514872 
L 309.479113 153.514872 
L 309.479113 154.491714 
L 311.032484 154.491714 
L 311.032484 155.755862 
L 312.585855 155.755862 
L 312.585855 156.531589 
L 314.139226 156.531589 
L 314.139226 156.703973 
L 315.692597 156.703973 
L 315.692597 156.933818 
L 399.574632 156.905088 
L 399.574632 156.818896 
L 401.128003 156.818896 
L 401.128003 156.675242 
L 402.681375 156.675242 
L 402.681375 156.474128 
L 404.234746 156.474128 
L 404.234746 156.186822 
L 405.788117 156.186822 
L 405.788117 155.899515 
L 407.341488 155.899515 
L 407.341488 155.899515 
" clip-path="url(#p6e832bb9a0)" style="fill: none; stroke: #1f77b4; stroke-width: 1.5; stroke-linecap: square"/>
   </g>
   <g id="line2d_23">
    <path d="M 259.77124 156.933818 
L 259.77124 151.084261 
L 261.324611 151.084261 
L 261.324611 145.234703 
L 262.877982 145.234703 
L 262.877982 139.385146 
L 264.431353 139.385146 
L 264.431353 134.05274 
L 265.984724 134.05274 
L 265.984724 128.720334 
L 267.538095 128.720334 
L 267.538095 125.807047 
L 269.091466 125.807047 
L 269.091466 123.135098 
L 270.644837 123.135098 
L 270.644837 121.87095 
L 272.198208 121.87095 
L 272.198208 121.468721 
L 273.751579 121.468721 
L 273.751579 121.123953 
L 290.83866 121.066492 
L 290.83866 121.353799 
L 292.392031 121.353799 
L 292.392031 121.957142 
L 293.945402 121.957142 
L 293.945402 122.388101 
L 295.498773 122.388101 
L 295.498773 123.767172 
L 297.052144 123.767172 
L 297.052144 125.318626 
L 298.605515 125.318626 
L 298.605515 128.36982 
L 300.158886 128.36982 
L 300.158886 133.052914 
L 301.712258 133.052914 
L 301.712258 138.086521 
L 303.265629 138.086521 
L 303.265629 142.740884 
L 304.819 142.740884 
L 304.819 147.194133 
L 306.372371 147.194133 
L 306.372371 150.210849 
L 307.925742 150.210849 
L 307.925742 152.767876 
L 309.479113 152.767876 
L 309.479113 154.204408 
L 311.032484 154.204408 
L 311.032484 155.66967 
L 312.585855 155.66967 
L 312.585855 156.502859 
L 314.139226 156.502859 
L 314.139226 156.703973 
L 315.692597 156.703973 
L 315.692597 156.933818 
L 345.206646 156.876357 
L 345.206646 156.818896 
L 348.313388 156.761434 
L 348.313388 156.675242 
L 349.866759 156.675242 
L 349.866759 156.531589 
L 351.42013 156.531589 
L 351.42013 156.273014 
L 352.973502 156.273014 
L 352.973502 155.985707 
L 354.526873 155.985707 
L 354.526873 155.635193 
L 356.080244 155.635193 
L 356.080244 155.083565 
L 357.633615 155.083565 
L 357.633615 154.417014 
L 359.186986 154.417014 
L 359.186986 153.635541 
L 360.740357 153.635541 
L 360.740357 152.652953 
L 362.293728 152.652953 
L 362.293728 151.383059 
L 363.847099 151.383059 
L 363.847099 149.969512 
L 365.40047 149.969512 
L 365.40047 148.297389 
L 366.953841 148.297389 
L 366.953841 146.332213 
L 368.507212 146.332213 
L 368.507212 143.792425 
L 370.060583 143.792425 
L 370.060583 140.913616 
L 371.613954 140.913616 
L 371.613954 137.603846 
L 373.167325 137.603846 
L 373.167325 133.920579 
L 374.720696 133.920579 
L 374.720696 130.064927 
L 376.274067 130.064927 
L 376.274067 126.008162 
L 377.827438 126.008162 
L 377.827438 121.807743 
L 379.380809 121.807743 
L 379.380809 117.147633 
L 380.93418 117.147633 
L 380.93418 112.372602 
L 382.487551 112.372602 
L 382.487551 107.534363 
L 384.040922 107.534363 
L 384.040922 102.495009 
L 385.594293 102.495009 
L 385.594293 97.37521 
L 387.147664 97.37521 
L 387.147664 92.22668 
L 388.701035 92.22668 
L 388.701035 87.07815 
L 390.254406 87.07815 
L 390.254406 82.216926 
L 391.807777 82.216926 
L 391.807777 77.499356 
L 393.361148 77.499356 
L 393.361148 72.925438 
L 394.914519 72.925438 
L 394.914519 68.523905 
L 396.46789 68.523905 
L 396.46789 64.49587 
L 398.021261 64.49587 
L 398.021261 60.732156 
L 399.574632 60.732156 
L 399.574632 57.341941 
L 401.128003 57.341941 
L 401.128003 54.181571 
L 402.681375 54.181571 
L 402.681375 51.279777 
L 404.234746 51.279777 
L 404.234746 48.923865 
L 405.788117 48.923865 
L 405.788117 46.970182 
L 407.341488 46.970182 
L 407.341488 46.970182 
" clip-path="url(#p6e832bb9a0)" style="fill: none; stroke: #ff7f0e; stroke-width: 1.5; stroke-linecap: square"/>
   </g>
   <g id="line2d_24">
    <path d="M 259.77124 156.933818 
L 259.77124 154.59921 
L 261.324611 154.59921 
L 261.324611 152.261603 
L 262.877982 152.261603 
L 262.877982 150.074698 
L 264.431353 150.074698 
L 264.431353 148.127651 
L 265.984724 148.127651 
L 265.984724 146.373693 
L 267.538095 146.373693 
L 267.538095 144.257395 
L 269.091466 144.257395 
L 269.091466 141.673102 
L 270.644837 141.673102 
L 270.644837 138.734149 
L 272.198208 138.734149 
L 272.198208 135.473575 
L 273.751579 135.473575 
L 273.751579 132.734611 
L 275.30495 132.734611 
L 275.30495 130.657714 
L 276.858321 130.657714 
L 276.858321 128.994868 
L 278.411692 128.994868 
L 278.411692 127.853334 
L 279.965063 127.853334 
L 279.965063 126.860668 
L 281.518434 126.860668 
L 281.518434 126.050981 
L 283.071805 126.050981 
L 283.071805 125.374116 
L 284.625176 125.374116 
L 284.625176 124.805732 
L 286.178547 124.805732 
L 286.178547 124.112651 
L 287.731918 124.112651 
L 287.731918 123.26524 
L 289.285289 123.26524 
L 289.285289 122.244254 
L 290.83866 122.244254 
L 290.83866 121.353829 
L 292.392031 121.353829 
L 292.392031 121.957171 
L 293.945402 121.957171 
L 293.945402 122.388129 
L 295.498773 122.388129 
L 295.498773 123.767197 
L 297.052144 123.767197 
L 297.052144 125.318649 
L 298.605515 125.318649 
L 298.605515 128.36984 
L 300.158886 128.36984 
L 300.158886 133.05293 
L 301.712258 133.05293 
L 301.712258 138.086534 
L 303.265629 138.086534 
L 303.265629 142.740894 
L 304.819 142.740894 
L 304.819 147.194139 
L 306.372371 147.194139 
L 306.372371 150.210852 
L 307.925742 150.210852 
L 307.925742 152.767874 
L 309.479113 152.767874 
L 309.479113 154.204405 
L 311.032484 154.204405 
L 311.032484 155.669666 
L 312.585855 155.669666 
L 312.585855 156.502854 
L 314.139226 156.502854 
L 314.139226 156.703968 
L 315.692597 156.703968 
L 315.692597 156.933813 
L 359.186986 156.933803 
L 359.186986 156.64489 
L 360.740357 156.64489 
L 360.740357 156.139711 
L 362.293728 156.139711 
L 362.293728 155.41982 
L 363.847099 155.41982 
L 363.847099 154.641844 
L 365.40047 154.641844 
L 365.40047 153.78499 
L 366.953841 153.78499 
L 366.953841 152.805591 
L 368.507212 152.805591 
L 368.507212 151.496962 
L 370.060583 151.496962 
L 370.060583 150.068305 
L 371.613954 150.068305 
L 371.613954 148.482446 
L 373.167325 148.482446 
L 373.167325 146.792799 
L 374.720696 146.792799 
L 374.720696 145.08627 
L 376.274067 145.08627 
L 376.274067 143.363755 
L 377.827438 143.363755 
L 377.827438 141.8379 
L 379.380809 141.8379 
L 379.380809 140.042308 
L 380.93418 140.042308 
L 380.93418 138.240067 
L 382.487551 138.240067 
L 382.487551 136.443738 
L 384.040922 136.443738 
L 384.040922 134.627584 
L 385.594293 134.627584 
L 385.594293 132.769521 
L 387.147664 132.769521 
L 387.147664 130.874072 
L 388.701035 130.874072 
L 388.701035 128.900054 
L 390.254406 128.900054 
L 390.254406 126.827295 
L 391.807777 126.827295 
L 391.807777 124.679137 
L 393.361148 124.679137 
L 393.361148 122.407288 
L 394.914519 122.407288 
L 394.914519 119.975841 
L 396.46789 119.975841 
L 396.46789 117.335369 
L 398.021261 117.335369 
L 398.021261 114.420229 
L 399.574632 114.420229 
L 399.574632 111.237527 
L 401.128003 111.237527 
L 401.128003 107.758846 
L 402.681375 107.758846 
L 402.681375 104.024445 
L 404.234746 104.024445 
L 404.234746 100.368247 
L 405.788117 100.368247 
L 405.788117 96.737337 
L 407.341488 96.737337 
L 407.341488 96.737337 
" clip-path="url(#p6e832bb9a0)" style="fill: none; stroke: #2ca02c; stroke-width: 1.5; stroke-linecap: square"/>
   </g>
   <g id="patch_9">
    <path d="M 252.392727 162.432 
L 252.392727 41.472 
" style="fill: none; stroke: #000000; stroke-width: 0.8; stroke-linejoin: miter; stroke-linecap: square"/>
   </g>
   <g id="patch_10">
    <path d="M 414.72 162.432 
L 414.72 41.472 
" style="fill: none; stroke: #000000; stroke-width: 0.8; stroke-linejoin: miter; stroke-linecap: square"/>
   </g>
   <g id="patch_11">
    <path d="M 252.392727 162.432 
L 414.72 162.432 
" style="fill: none; stroke: #000000; stroke-width: 0.8; stroke-linejoin: miter; stroke-linecap: square"/>
   </g>
   <g id="patch_12">
    <path d="M 252.392727 41.472 
L 414.72 41.472 
" style="fill: none; stroke: #000000; stroke-width: 0.8; stroke-linejoin: miter; stroke-linecap: square"/>
   </g>
   <g id="text_24">
    <!-- NUM2 -->
    <g transform="translate(323.129645 35.472) scale(0.07 -0.07)">
     <use xlink:href="#DejaVuSans-4e"/>
     <use xlink:href="#DejaVuSans-55" x="74.804688"/>
     <use xlink:href="#DejaVuSans-4d" x="147.998047"/>
     <use xlink:href="#DejaVuSans-32" x="234.277344"/>
    </g>
   </g>
   <g id="legend_2">
    <g id="patch_13">
     <path d="M 376.695781 67.906375 
L 411.22 67.906375 
Q 412.22 67.906375 412.22 66.906375 
L 412.22 44.972 
Q 412.22 43.972 411.22 43.972 
L 376.695781 43.972 
Q 375.695781 43.972 375.695781 44.972 
L 375.695781 66.906375 
Q 375.695781 67.906375 376.695781 67.906375 
z
" style="fill: #ffffff; opacity: 0.8; stroke: #cccccc; stroke-linejoin: miter"/>
    </g>
    <g id="line2d_25">
     <path d="M 377.695781 48.021219 
L 377.695781 48.021219 
L 382.695781 48.021219 
L 382.695781 48.021219 
L 387.695781 48.021219 
" style="fill: none; stroke: #1f77b4; stroke-width: 1.5; stroke-linecap: square"/>
    </g>
    <g id="text_25">
     <!-- EVA_lb -->
     <g transform="translate(391.695781 49.771219) scale(0.05 -0.05)">
      <use xlink:href="#DejaVuSans-45"/>
      <use xlink:href="#DejaVuSans-56" x="63.183594"/>
      <use xlink:href="#DejaVuSans-41" x="125.216797"/>
      <use xlink:href="#DejaVuSans-5f" x="193.625"/>
      <use xlink:href="#DejaVuSans-6c" x="243.625"/>
      <use xlink:href="#DejaVuSans-62" x="271.408203"/>
     </g>
    </g>
    <g id="line2d_26">
     <path d="M 377.695781 55.499344 
L 377.695781 55.499344 
L 382.695781 55.499344 
L 382.695781 55.499344 
L 387.695781 55.499344 
" style="fill: none; stroke: #ff7f0e; stroke-width: 1.5; stroke-linecap: square"/>
    </g>
    <g id="text_26">
     <!-- EVA_ub -->
     <g transform="translate(391.695781 57.249344) scale(0.05 -0.05)">
      <use xlink:href="#DejaVuSans-45"/>
      <use xlink:href="#DejaVuSans-56" x="63.183594"/>
      <use xlink:href="#DejaVuSans-41" x="125.216797"/>
      <use xlink:href="#DejaVuSans-5f" x="193.625"/>
      <use xlink:href="#DejaVuSans-75" x="243.625"/>
      <use xlink:href="#DejaVuSans-62" x="307.003906"/>
     </g>
    </g>
    <g id="line2d_27">
     <path d="M 377.695781 62.977469 
L 377.695781 62.977469 
L 382.695781 62.977469 
L 382.695781 62.977469 
L 387.695781 62.977469 
" style="fill: none; stroke: #2ca02c; stroke-width: 1.5; stroke-linecap: square"/>
    </g>
    <g id="text_27">
     <!-- EVA_C -->
     <g transform="translate(391.695781 64.727469) scale(0.05 -0.05)">
      <use xlink:href="#DejaVuSans-45"/>
      <use xlink:href="#DejaVuSans-56" x="63.183594"/>
      <use xlink:href="#DejaVuSans-41" x="125.216797"/>
      <use xlink:href="#DejaVuSans-5f" x="193.625"/>
      <use xlink:href="#DejaVuSans-43" x="243.625"/>
     </g>
    </g>
   </g>
  </g>
  <g id="axes_3">
   <g id="patch_14">
    <path d="M 57.6 307.584 
L 219.927273 307.584 
L 219.927273 186.624 
L 57.6 186.624 
z
" style="fill: #ffffff"/>
   </g>
   <g id="matplotlib.axis_5">
    <g id="xtick_9">
     <g id="line2d_28">
      <g>
       <use xlink:href="#mc2b4d5701e" x="64.978512" y="307.584" style="stroke: #000000; stroke-width: 0.8"/>
      </g>
     </g>
     <g id="text_28">
      <!-- 0 -->
      <g transform="translate(63.387887 318.383219) scale(0.05 -0.05)">
       <use xlink:href="#DejaVuSans-30"/>
      </g>
     </g>
    </g>
    <g id="xtick_10">
     <g id="line2d_29">
      <g>
       <use xlink:href="#mc2b4d5701e" x="103.812788" y="307.584" style="stroke: #000000; stroke-width: 0.8"/>
      </g>
     </g>
     <g id="text_29">
      <!-- 25 -->
      <g transform="translate(100.631538 318.383219) scale(0.05 -0.05)">
       <use xlink:href="#DejaVuSans-32"/>
       <use xlink:href="#DejaVuSans-35" x="63.623047"/>
      </g>
     </g>
    </g>
    <g id="xtick_11">
     <g id="line2d_30">
      <g>
       <use xlink:href="#mc2b4d5701e" x="142.647064" y="307.584" style="stroke: #000000; stroke-width: 0.8"/>
      </g>
     </g>
     <g id="text_30">
      <!-- 50 -->
      <g transform="translate(139.465814 318.383219) scale(0.05 -0.05)">
       <use xlink:href="#DejaVuSans-35"/>
       <use xlink:href="#DejaVuSans-30" x="63.623047"/>
      </g>
     </g>
    </g>
    <g id="xtick_12">
     <g id="line2d_31">
      <g>
       <use xlink:href="#mc2b4d5701e" x="181.48134" y="307.584" style="stroke: #000000; stroke-width: 0.8"/>
      </g>
     </g>
     <g id="text_31">
      <!-- 75 -->
      <g transform="translate(178.30009 318.383219) scale(0.05 -0.05)">
       <use xlink:href="#DejaVuSans-37"/>
       <use xlink:href="#DejaVuSans-35" x="63.623047"/>
      </g>
     </g>
    </g>
    <g id="text_32">
     <!-- t -->
     <g transform="translate(217.967116 327.222281) scale(0.05 -0.05)">
      <use xlink:href="#DejaVuSans-74"/>
     </g>
    </g>
   </g>
   <g id="matplotlib.axis_6">
    <g id="ytick_8">
     <g id="line2d_32">
      <g>
       <use xlink:href="#m2418580a54" x="57.6" y="302.085818" style="stroke: #000000; stroke-width: 0.8"/>
      </g>
     </g>
     <g id="text_33">
      <!-- 0 -->
      <g transform="translate(47.41875 303.985428) scale(0.05 -0.05)">
       <use xlink:href="#DejaVuSans-30"/>
      </g>
     </g>
    </g>
    <g id="ytick_9">
     <g id="line2d_33">
      <g>
       <use xlink:href="#m2418580a54" x="57.6" y="272.882267" style="stroke: #000000; stroke-width: 0.8"/>
      </g>
     </g>
     <g id="text_34">
      <!-- 5000 -->
      <g transform="translate(37.875 274.781876) scale(0.05 -0.05)">
       <use xlink:href="#DejaVuSans-35"/>
       <use xlink:href="#DejaVuSans-30" x="63.623047"/>
       <use xlink:href="#DejaVuSans-30" x="127.246094"/>
       <use xlink:href="#DejaVuSans-30" x="190.869141"/>
      </g>
     </g>
    </g>
    <g id="ytick_10">
     <g id="line2d_34">
      <g>
       <use xlink:href="#m2418580a54" x="57.6" y="243.678715" style="stroke: #000000; stroke-width: 0.8"/>
      </g>
     </g>
     <g id="text_35">
      <!-- 10000 -->
      <g transform="translate(34.69375 245.578325) scale(0.05 -0.05)">
       <use xlink:href="#DejaVuSans-31"/>
       <use xlink:href="#DejaVuSans-30" x="63.623047"/>
       <use xlink:href="#DejaVuSans-30" x="127.246094"/>
       <use xlink:href="#DejaVuSans-30" x="190.869141"/>
       <use xlink:href="#DejaVuSans-30" x="254.492188"/>
      </g>
     </g>
    </g>
    <g id="ytick_11">
     <g id="line2d_35">
      <g>
       <use xlink:href="#m2418580a54" x="57.6" y="214.475164" style="stroke: #000000; stroke-width: 0.8"/>
      </g>
     </g>
     <g id="text_36">
      <!-- 15000 -->
      <g transform="translate(34.69375 216.374773) scale(0.05 -0.05)">
       <use xlink:href="#DejaVuSans-31"/>
       <use xlink:href="#DejaVuSans-35" x="63.623047"/>
       <use xlink:href="#DejaVuSans-30" x="127.246094"/>
       <use xlink:href="#DejaVuSans-30" x="190.869141"/>
       <use xlink:href="#DejaVuSans-30" x="254.492188"/>
      </g>
     </g>
    </g>
    <g id="text_37">
     <!-- d_EVA -->
     <g transform="translate(29.514844 201.979469) rotate(-90) scale(0.05 -0.05)">
      <use xlink:href="#DejaVuSans-64"/>
      <use xlink:href="#DejaVuSans-5f" x="63.476562"/>
      <use xlink:href="#DejaVuSans-45" x="113.476562"/>
      <use xlink:href="#DejaVuSans-56" x="176.660156"/>
      <use xlink:href="#DejaVuSans-41" x="238.693359"/>
     </g>
    </g>
   </g>
   <g id="line2d_36">
    <path d="M 64.978512 302.085818 
L 86.725707 302.033252 
L 86.725707 301.928119 
L 88.279078 301.928119 
L 88.279078 301.586437 
L 89.832449 301.586437 
L 89.832449 300.929358 
L 91.38582 300.929358 
L 91.38582 299.825463 
L 92.939191 299.825463 
L 92.939191 298.222188 
L 94.492562 298.222188 
L 94.492562 295.993373 
L 96.045933 295.993373 
L 96.045933 293.212611 
L 97.599304 293.212611 
L 97.599304 289.958751 
L 99.152675 289.958751 
L 99.152675 286.941441 
L 100.706046 286.941441 
L 100.706046 284.186962 
L 102.259417 284.186962 
L 102.259417 282.168412 
L 103.812788 282.168412 
L 103.812788 281.910837 
L 105.366159 281.910837 
L 105.366159 280.70181 
L 106.91953 280.70181 
L 106.91953 282.01597 
L 108.472901 282.01597 
L 108.472901 283.540395 
L 110.026272 283.540395 
L 110.026272 285.138413 
L 111.579643 285.138413 
L 111.579643 286.237051 
L 113.133014 286.237051 
L 113.133014 286.757458 
L 116.239756 286.841564 
L 116.239756 285.632537 
L 117.793127 285.632537 
L 117.793127 284.528643 
L 119.346498 284.528643 
L 119.346498 282.662536 
L 120.89987 282.662536 
L 120.89987 280.218199 
L 122.453241 280.218199 
L 122.453241 277.090499 
L 124.006612 277.090499 
L 124.006612 275.040409 
L 125.559983 275.040409 
L 125.559983 274.041648 
L 127.113354 274.041648 
L 127.113354 271.702443 
L 128.666725 271.702443 
L 128.666725 267.786247 
L 130.220096 267.786247 
L 130.220096 268.259345 
L 131.773467 268.259345 
L 131.773467 267.786247 
L 133.326838 267.786247 
L 133.326838 269.888903 
L 134.880209 269.888903 
L 134.880209 268.522177 
L 136.43358 268.522177 
L 136.43358 266.524654 
L 137.986951 266.524654 
L 137.986951 264.080316 
L 139.540322 264.080316 
L 139.540322 262.976422 
L 141.093693 262.976422 
L 141.093693 262.661024 
L 142.647064 262.661024 
L 142.647064 259.270492 
L 144.200435 259.270492 
L 144.200435 259.112792 
L 145.753806 259.112792 
L 145.753806 257.404385 
L 147.307177 257.404385 
L 147.307177 258.534562 
L 148.860548 258.534562 
L 148.860548 259.533323 
L 150.413919 259.533323 
L 150.413919 257.509517 
L 151.96729 257.509517 
L 151.96729 256.090225 
L 153.520661 256.090225 
L 153.520661 253.225356 
L 155.074032 253.225356 
L 155.074032 252.883675 
L 156.627403 252.883675 
L 156.627403 251.622081 
L 158.180774 251.622081 
L 158.180774 253.304206 
L 159.734145 253.304206 
L 159.734145 251.543232 
L 161.287516 251.543232 
L 161.287516 253.645888 
L 162.840887 253.645888 
L 162.840887 252.725976 
L 164.394258 252.725976 
L 164.394258 255.354295 
L 165.947629 255.354295 
L 165.947629 256.799871 
L 167.501 256.799871 
L 167.501 256.589606 
L 169.054371 256.589606 
L 169.054371 258.245447 
L 170.607742 258.245447 
L 170.607742 262.05651 
L 173.714485 261.951378 
L 173.714485 262.21421 
L 175.267856 262.21421 
L 175.267856 264.290582 
L 176.821227 264.290582 
L 176.821227 263.291821 
L 178.374598 263.291821 
L 178.374598 266.261822 
L 179.927969 266.261822 
L 179.927969 269.179257 
L 181.48134 269.179257 
L 181.48134 268.443327 
L 183.034711 268.443327 
L 183.034711 271.702443 
L 184.588082 271.702443 
L 184.588082 273.989081 
L 186.141453 273.989081 
L 186.141453 277.379614 
L 187.694824 277.379614 
L 187.694824 279.613685 
L 190.801566 279.561119 
L 190.801566 280.244482 
L 192.354937 280.244482 
L 192.354937 281.506076 
L 193.908308 281.506076 
L 193.908308 283.76643 
L 195.461679 283.76643 
L 195.461679 285.579971 
L 198.568421 285.501121 
L 198.568421 286.053068 
L 200.121792 286.053068 
L 200.121792 286.605016 
L 201.675163 286.605016 
L 201.675163 287.945459 
L 203.228534 287.945459 
L 203.228534 288.86537 
L 204.781905 288.86537 
L 204.781905 289.02307 
L 206.335276 289.02307 
L 206.335276 290.83661 
L 207.888647 290.83661 
L 207.888647 290.678911 
L 209.442018 290.678911 
L 209.442018 291.519973 
L 210.995389 291.519973 
L 210.995389 293.543779 
L 212.54876 293.543779 
L 212.54876 293.543779 
" clip-path="url(#p0f31bfc83d)" style="fill: none; stroke: #1f77b4; stroke-width: 1.5; stroke-linecap: square"/>
   </g>
   <g id="line2d_37">
    <path d="M 64.978512 302.085818 
L 64.978512 294.884222 
L 66.531883 294.884222 
L 66.531883 287.682627 
L 68.085254 287.682627 
L 68.085254 280.481031 
L 69.638625 280.481031 
L 69.638625 273.962798 
L 71.191997 273.962798 
L 71.191997 267.444566 
L 72.745368 267.444566 
L 72.745368 263.817484 
L 74.298739 263.817484 
L 74.298739 260.300793 
L 75.85211 260.300793 
L 75.85211 258.361093 
L 77.405481 258.361093 
L 77.405481 257.972102 
L 78.958852 257.972102 
L 78.958852 257.761836 
L 92.939191 257.70927 
L 92.939191 257.63042 
L 99.152675 257.70927 
L 99.152675 258.602898 
L 100.706046 258.602898 
L 100.706046 260.101041 
L 102.259417 260.101041 
L 102.259417 262.624227 
L 103.812788 262.624227 
L 103.812788 266.724406 
L 105.366159 266.724406 
L 105.366159 269.641841 
L 106.91953 269.641841 
L 106.91953 274.425382 
L 108.472901 274.425382 
L 108.472901 278.662234 
L 110.026272 278.662234 
L 110.026272 282.157899 
L 111.579643 282.157899 
L 111.579643 284.444537 
L 113.133014 284.444537 
L 113.133014 285.837546 
L 114.686385 285.837546 
L 114.686385 286.368467 
L 116.239756 286.368467 
L 116.239756 285.448555 
L 117.793127 285.448555 
L 117.793127 284.449794 
L 119.346498 284.449794 
L 119.346498 282.662536 
L 120.89987 282.662536 
L 120.89987 280.218199 
L 122.453241 280.218199 
L 122.453241 277.090499 
L 124.006612 277.090499 
L 124.006612 275.040409 
L 125.559983 275.040409 
L 125.559983 274.041648 
L 127.113354 274.041648 
L 127.113354 271.702443 
L 128.666725 271.702443 
L 128.666725 267.786247 
L 130.220096 267.786247 
L 130.220096 268.259345 
L 131.773467 268.259345 
L 131.773467 267.786247 
L 133.326838 267.786247 
L 133.326838 269.888903 
L 134.880209 269.888903 
L 134.880209 268.522177 
L 136.43358 268.522177 
L 136.43358 266.524654 
L 137.986951 266.524654 
L 137.986951 264.080316 
L 139.540322 264.080316 
L 139.540322 262.976422 
L 141.093693 262.976422 
L 141.093693 262.661024 
L 142.647064 262.661024 
L 142.647064 259.270492 
L 144.200435 259.270492 
L 144.200435 259.112792 
L 145.753806 259.112792 
L 145.753806 257.404385 
L 147.307177 257.404385 
L 147.307177 258.534562 
L 148.860548 258.534562 
L 148.860548 259.533323 
L 150.413919 259.533323 
L 150.413919 257.509517 
L 151.96729 257.509517 
L 151.96729 256.063942 
L 153.520661 256.063942 
L 153.520661 253.17279 
L 155.074032 253.17279 
L 155.074032 252.752259 
L 156.627403 252.752259 
L 156.627403 251.385533 
L 158.180774 251.385533 
L 158.180774 252.883675 
L 159.734145 252.883675 
L 159.734145 250.728453 
L 161.287516 250.728453 
L 161.287516 252.279161 
L 162.840887 252.279161 
L 162.840887 250.597037 
L 164.394258 250.597037 
L 164.394258 252.174029 
L 165.947629 252.174029 
L 165.947629 252.489427 
L 167.501 252.489427 
L 167.501 250.886152 
L 170.607742 250.802046 
L 170.607742 252.584046 
L 172.161114 252.584046 
L 172.161114 250.055603 
L 173.714485 250.055603 
L 173.714485 247.36946 
L 175.267856 247.36946 
L 175.267856 246.207743 
L 176.821227 246.207743 
L 176.821227 241.550361 
L 178.374598 241.550361 
L 178.374598 240.520059 
L 179.927969 240.520059 
L 179.927969 239.253209 
L 181.48134 239.253209 
L 181.48134 234.096446 
L 183.034711 234.096446 
L 183.034711 232.861136 
L 184.588082 232.861136 
L 184.588082 230.474622 
L 186.141453 230.474622 
L 186.141453 229.008019 
L 187.694824 229.008019 
L 187.694824 226.306107 
L 189.248195 226.306107 
L 189.248195 221.422689 
L 190.801566 221.422689 
L 190.801566 217.301484 
L 192.354937 217.301484 
L 192.354937 213.995058 
L 193.908308 213.995058 
L 193.908308 211.950225 
L 195.461679 211.950225 
L 195.461679 209.668844 
L 197.01505 209.668844 
L 197.01505 205.941886 
L 198.568421 205.941886 
L 198.568421 203.082275 
L 200.121792 203.082275 
L 200.121792 200.432928 
L 201.675163 200.432928 
L 201.675163 198.91376 
L 203.228534 198.91376 
L 203.228534 197.289458 
L 204.781905 197.289458 
L 204.781905 195.060643 
L 206.335276 195.060643 
L 206.335276 194.724218 
L 207.888647 194.724218 
L 207.888647 192.752979 
L 209.442018 192.752979 
L 209.442018 192.122182 
L 210.995389 192.122182 
L 210.995389 192.752979 
L 212.54876 192.752979 
L 212.54876 192.752979 
" clip-path="url(#p0f31bfc83d)" style="fill: none; stroke: #ff7f0e; stroke-width: 1.5; stroke-linecap: square"/>
   </g>
   <g id="line2d_38">
    <path d="M 64.978512 302.085818 
L 64.978512 298.901435 
L 66.531883 298.901435 
L 66.531883 296.261755 
L 68.085254 296.261755 
L 68.085254 293.400676 
L 69.638625 293.400676 
L 69.638625 290.421214 
L 71.191997 290.421214 
L 71.191997 287.6537 
L 72.745368 287.6537 
L 72.745368 284.592189 
L 74.298739 284.592189 
L 74.298739 281.322647 
L 75.85211 281.322647 
L 75.85211 277.83133 
L 77.405481 277.83133 
L 77.405481 274.040426 
L 78.958852 274.040426 
L 78.958852 270.651962 
L 80.512223 270.651962 
L 80.512223 268.218296 
L 82.065594 268.218296 
L 82.065594 266.290649 
L 83.618965 266.290649 
L 83.618965 264.91683 
L 85.172336 264.91683 
L 85.172336 263.66324 
L 86.725707 263.66324 
L 86.725707 262.670426 
L 88.279078 262.670426 
L 88.279078 261.874924 
L 89.832449 261.874924 
L 89.832449 261.271031 
L 91.38582 261.271031 
L 91.38582 260.48119 
L 92.939191 260.48119 
L 92.939191 259.532888 
L 94.492562 259.532888 
L 94.492562 258.475777 
L 96.045933 258.475777 
L 96.045933 257.577855 
L 97.599304 257.577855 
L 97.599304 257.876182 
L 99.152675 257.876182 
L 99.152675 259.014937 
L 100.706046 259.014937 
L 100.706046 260.746033 
L 102.259417 260.746033 
L 102.259417 263.532516 
L 103.812788 263.532516 
L 103.812788 267.942809 
L 105.366159 267.942809 
L 105.366159 271.159738 
L 106.91953 271.159738 
L 106.91953 276.040655 
L 108.472901 276.040655 
L 108.472901 280.09005 
L 110.026272 280.09005 
L 110.026272 283.096256 
L 111.579643 283.096256 
L 111.579643 284.774695 
L 113.133014 284.774695 
L 113.133014 285.837542 
L 114.686385 285.837542 
L 114.686385 286.472565 
L 116.239756 286.472565 
L 116.239756 285.515286 
L 117.793127 285.515286 
L 117.793127 284.478901 
L 119.346498 284.478901 
L 119.346498 282.662531 
L 120.89987 282.662531 
L 120.89987 280.218194 
L 122.453241 280.218194 
L 122.453241 277.090493 
L 124.006612 277.090493 
L 124.006612 275.040404 
L 125.559983 275.040404 
L 125.559983 274.041642 
L 127.113354 274.041642 
L 127.113354 271.702438 
L 128.666725 271.702438 
L 128.666725 267.786241 
L 130.220096 267.786241 
L 130.220096 268.259339 
L 131.773467 268.259339 
L 131.773467 267.786241 
L 133.326838 267.786241 
L 133.326838 269.888897 
L 134.880209 269.888897 
L 134.880209 268.52217 
L 136.43358 268.52217 
L 136.43358 266.524647 
L 137.986951 266.524647 
L 137.986951 264.08031 
L 139.540322 264.08031 
L 139.540322 262.976415 
L 141.093693 262.976415 
L 141.093693 262.661017 
L 142.647064 262.661017 
L 142.647064 259.270485 
L 144.200435 259.270485 
L 144.200435 259.112785 
L 145.753806 259.112785 
L 145.753806 257.404377 
L 147.307177 257.404377 
L 147.307177 258.534555 
L 148.860548 258.534555 
L 148.860548 259.533316 
L 150.413919 259.533316 
L 150.413919 257.50951 
L 151.96729 257.50951 
L 151.96729 256.07561 
L 153.520661 256.07561 
L 153.520661 253.204854 
L 155.074032 253.204854 
L 155.074032 252.824399 
L 156.627403 252.824399 
L 156.627403 251.537888 
L 158.180774 251.537888 
L 158.180774 253.146004 
L 159.734145 253.146004 
L 159.734145 251.350074 
L 161.287516 251.350074 
L 161.287516 253.557318 
L 162.840887 253.557318 
L 162.840887 252.725965 
L 164.394258 252.725965 
L 164.394258 255.214786 
L 165.947629 255.214786 
L 165.947629 256.145483 
L 167.501 256.145483 
L 167.501 255.211864 
L 169.054371 255.211864 
L 169.054371 255.924907 
L 170.607742 255.924907 
L 170.607742 258.720431 
L 172.161114 258.720431 
L 172.161114 257.705651 
L 173.714485 257.705651 
L 173.714485 256.587231 
L 175.267856 256.587231 
L 175.267856 257.116125 
L 176.821227 257.116125 
L 176.821227 254.411921 
L 178.374598 254.411921 
L 178.374598 255.602856 
L 179.927969 255.602856 
L 179.927969 256.841509 
L 181.48134 256.841509 
L 181.48134 254.76341 
L 183.034711 254.76341 
L 183.034711 257.174632 
L 184.588082 257.174632 
L 184.588082 258.149843 
L 186.141453 258.149843 
L 186.141453 260.270337 
L 187.694824 260.270337 
L 187.694824 261.333242 
L 189.248195 261.333242 
L 189.248195 260.35426 
L 190.801566 260.35426 
L 190.801566 260.078762 
L 192.354937 260.078762 
L 192.354937 260.29249 
L 193.908308 260.29249 
L 193.908308 261.287599 
L 195.461679 261.287599 
L 195.461679 261.592014 
L 197.01505 261.592014 
L 197.01505 260.024032 
L 198.568421 260.024032 
L 198.568421 258.909681 
L 200.121792 258.909681 
L 200.121792 257.545554 
L 201.675163 257.545554 
L 201.675163 256.644952 
L 203.228534 256.644952 
L 203.228534 255.007851 
L 204.781905 255.007851 
L 204.781905 252.239834 
L 206.335276 252.239834 
L 206.335276 250.657993 
L 207.888647 250.657993 
L 207.888647 246.786523 
L 209.442018 246.786523 
L 209.442018 244.082776 
L 210.995389 244.082776 
L 210.995389 242.610963 
L 212.54876 242.610963 
L 212.54876 242.610963 
" clip-path="url(#p0f31bfc83d)" style="fill: none; stroke: #2ca02c; stroke-width: 1.5; stroke-linecap: square"/>
   </g>
   <g id="patch_15">
    <path d="M 57.6 307.584 
L 57.6 186.624 
" style="fill: none; stroke: #000000; stroke-width: 0.8; stroke-linejoin: miter; stroke-linecap: square"/>
   </g>
   <g id="patch_16">
    <path d="M 219.927273 307.584 
L 219.927273 186.624 
" style="fill: none; stroke: #000000; stroke-width: 0.8; stroke-linejoin: miter; stroke-linecap: square"/>
   </g>
   <g id="patch_17">
    <path d="M 57.6 307.584 
L 219.927273 307.584 
" style="fill: none; stroke: #000000; stroke-width: 0.8; stroke-linejoin: miter; stroke-linecap: square"/>
   </g>
   <g id="patch_18">
    <path d="M 57.6 186.624 
L 219.927273 186.624 
" style="fill: none; stroke: #000000; stroke-width: 0.8; stroke-linejoin: miter; stroke-linecap: square"/>
   </g>
   <g id="text_38">
    <!-- NUM3 -->
    <g transform="translate(128.336918 180.624) scale(0.07 -0.07)">
     <defs>
      <path id="DejaVuSans-33" d="M 2597 2516 
Q 3050 2419 3304 2112 
Q 3559 1806 3559 1356 
Q 3559 666 3084 287 
Q 2609 -91 1734 -91 
Q 1441 -91 1130 -33 
Q 819 25 488 141 
L 488 750 
Q 750 597 1062 519 
Q 1375 441 1716 441 
Q 2309 441 2620 675 
Q 2931 909 2931 1356 
Q 2931 1769 2642 2001 
Q 2353 2234 1838 2234 
L 1294 2234 
L 1294 2753 
L 1863 2753 
Q 2328 2753 2575 2939 
Q 2822 3125 2822 3475 
Q 2822 3834 2567 4026 
Q 2313 4219 1838 4219 
Q 1578 4219 1281 4162 
Q 984 4106 628 3988 
L 628 4550 
Q 988 4650 1302 4700 
Q 1616 4750 1894 4750 
Q 2613 4750 3031 4423 
Q 3450 4097 3450 3541 
Q 3450 3153 3228 2886 
Q 3006 2619 2597 2516 
z
" transform="scale(0.015625)"/>
     </defs>
     <use xlink:href="#DejaVuSans-4e"/>
     <use xlink:href="#DejaVuSans-55" x="74.804688"/>
     <use xlink:href="#DejaVuSans-4d" x="147.998047"/>
     <use xlink:href="#DejaVuSans-33" x="234.277344"/>
    </g>
   </g>
   <g id="legend_3">
    <g id="patch_19">
     <path d="M 181.903054 213.058375 
L 216.427273 213.058375 
Q 217.427273 213.058375 217.427273 212.058375 
L 217.427273 190.124 
Q 217.427273 189.124 216.427273 189.124 
L 181.903054 189.124 
Q 180.903054 189.124 180.903054 190.124 
L 180.903054 212.058375 
Q 180.903054 213.058375 181.903054 213.058375 
z
" style="fill: #ffffff; opacity: 0.8; stroke: #cccccc; stroke-linejoin: miter"/>
    </g>
    <g id="line2d_39">
     <path d="M 182.903054 193.173219 
L 182.903054 193.173219 
L 187.903054 193.173219 
L 187.903054 193.173219 
L 192.903054 193.173219 
" style="fill: none; stroke: #1f77b4; stroke-width: 1.5; stroke-linecap: square"/>
    </g>
    <g id="text_39">
     <!-- EVA_lb -->
     <g transform="translate(196.903054 194.923219) scale(0.05 -0.05)">
      <use xlink:href="#DejaVuSans-45"/>
      <use xlink:href="#DejaVuSans-56" x="63.183594"/>
      <use xlink:href="#DejaVuSans-41" x="125.216797"/>
      <use xlink:href="#DejaVuSans-5f" x="193.625"/>
      <use xlink:href="#DejaVuSans-6c" x="243.625"/>
      <use xlink:href="#DejaVuSans-62" x="271.408203"/>
     </g>
    </g>
    <g id="line2d_40">
     <path d="M 182.903054 200.651344 
L 182.903054 200.651344 
L 187.903054 200.651344 
L 187.903054 200.651344 
L 192.903054 200.651344 
" style="fill: none; stroke: #ff7f0e; stroke-width: 1.5; stroke-linecap: square"/>
    </g>
    <g id="text_40">
     <!-- EVA_ub -->
     <g transform="translate(196.903054 202.401344) scale(0.05 -0.05)">
      <use xlink:href="#DejaVuSans-45"/>
      <use xlink:href="#DejaVuSans-56" x="63.183594"/>
      <use xlink:href="#DejaVuSans-41" x="125.216797"/>
      <use xlink:href="#DejaVuSans-5f" x="193.625"/>
      <use xlink:href="#DejaVuSans-75" x="243.625"/>
      <use xlink:href="#DejaVuSans-62" x="307.003906"/>
     </g>
    </g>
    <g id="line2d_41">
     <path d="M 182.903054 208.129469 
L 182.903054 208.129469 
L 187.903054 208.129469 
L 187.903054 208.129469 
L 192.903054 208.129469 
" style="fill: none; stroke: #2ca02c; stroke-width: 1.5; stroke-linecap: square"/>
    </g>
    <g id="text_41">
     <!-- EVA_C -->
     <g transform="translate(196.903054 209.879469) scale(0.05 -0.05)">
      <use xlink:href="#DejaVuSans-45"/>
      <use xlink:href="#DejaVuSans-56" x="63.183594"/>
      <use xlink:href="#DejaVuSans-41" x="125.216797"/>
      <use xlink:href="#DejaVuSans-5f" x="193.625"/>
      <use xlink:href="#DejaVuSans-43" x="243.625"/>
     </g>
    </g>
   </g>
  </g>
  <g id="axes_4">
   <g id="patch_20">
    <path d="M 252.392727 307.584 
L 414.72 307.584 
L 414.72 186.624 
L 252.392727 186.624 
z
" style="fill: #ffffff"/>
   </g>
   <g id="matplotlib.axis_7">
    <g id="xtick_13">
     <g id="line2d_42">
      <g>
       <use xlink:href="#mc2b4d5701e" x="259.77124" y="307.584" style="stroke: #000000; stroke-width: 0.8"/>
      </g>
     </g>
     <g id="text_42">
      <!-- 0 -->
      <g transform="translate(258.180615 318.383219) scale(0.05 -0.05)">
       <use xlink:href="#DejaVuSans-30"/>
      </g>
     </g>
    </g>
    <g id="xtick_14">
     <g id="line2d_43">
      <g>
       <use xlink:href="#mc2b4d5701e" x="298.605515" y="307.584" style="stroke: #000000; stroke-width: 0.8"/>
      </g>
     </g>
     <g id="text_43">
      <!-- 25 -->
      <g transform="translate(295.424265 318.383219) scale(0.05 -0.05)">
       <use xlink:href="#DejaVuSans-32"/>
       <use xlink:href="#DejaVuSans-35" x="63.623047"/>
      </g>
     </g>
    </g>
    <g id="xtick_15">
     <g id="line2d_44">
      <g>
       <use xlink:href="#mc2b4d5701e" x="337.439791" y="307.584" style="stroke: #000000; stroke-width: 0.8"/>
      </g>
     </g>
     <g id="text_44">
      <!-- 50 -->
      <g transform="translate(334.258541 318.383219) scale(0.05 -0.05)">
       <use xlink:href="#DejaVuSans-35"/>
       <use xlink:href="#DejaVuSans-30" x="63.623047"/>
      </g>
     </g>
    </g>
    <g id="xtick_16">
     <g id="line2d_45">
      <g>
       <use xlink:href="#mc2b4d5701e" x="376.274067" y="307.584" style="stroke: #000000; stroke-width: 0.8"/>
      </g>
     </g>
     <g id="text_45">
      <!-- 75 -->
      <g transform="translate(373.092817 318.383219) scale(0.05 -0.05)">
       <use xlink:href="#DejaVuSans-37"/>
       <use xlink:href="#DejaVuSans-35" x="63.623047"/>
      </g>
     </g>
    </g>
    <g id="text_46">
     <!-- t -->
     <g transform="translate(412.759844 327.222281) scale(0.05 -0.05)">
      <use xlink:href="#DejaVuSans-74"/>
     </g>
    </g>
   </g>
   <g id="matplotlib.axis_8">
    <g id="ytick_12">
     <g id="line2d_46">
      <g>
       <use xlink:href="#m2418580a54" x="252.392727" y="302.085818" style="stroke: #000000; stroke-width: 0.8"/>
      </g>
     </g>
     <g id="text_47">
      <!-- 0 -->
      <g transform="translate(242.211477 303.985428) scale(0.05 -0.05)">
       <use xlink:href="#DejaVuSans-30"/>
      </g>
     </g>
    </g>
    <g id="ytick_13">
     <g id="line2d_47">
      <g>
       <use xlink:href="#m2418580a54" x="252.392727" y="275.523398" style="stroke: #000000; stroke-width: 0.8"/>
      </g>
     </g>
     <g id="text_48">
      <!-- 5000 -->
      <g transform="translate(232.667727 277.423008) scale(0.05 -0.05)">
       <use xlink:href="#DejaVuSans-35"/>
       <use xlink:href="#DejaVuSans-30" x="63.623047"/>
       <use xlink:href="#DejaVuSans-30" x="127.246094"/>
       <use xlink:href="#DejaVuSans-30" x="190.869141"/>
      </g>
     </g>
    </g>
    <g id="ytick_14">
     <g id="line2d_48">
      <g>
       <use xlink:href="#m2418580a54" x="252.392727" y="248.960979" style="stroke: #000000; stroke-width: 0.8"/>
      </g>
     </g>
     <g id="text_49">
      <!-- 10000 -->
      <g transform="translate(229.486477 250.860588) scale(0.05 -0.05)">
       <use xlink:href="#DejaVuSans-31"/>
       <use xlink:href="#DejaVuSans-30" x="63.623047"/>
       <use xlink:href="#DejaVuSans-30" x="127.246094"/>
       <use xlink:href="#DejaVuSans-30" x="190.869141"/>
       <use xlink:href="#DejaVuSans-30" x="254.492188"/>
      </g>
     </g>
    </g>
    <g id="ytick_15">
     <g id="line2d_49">
      <g>
       <use xlink:href="#m2418580a54" x="252.392727" y="222.398559" style="stroke: #000000; stroke-width: 0.8"/>
      </g>
     </g>
     <g id="text_50">
      <!-- 15000 -->
      <g transform="translate(229.486477 224.298168) scale(0.05 -0.05)">
       <use xlink:href="#DejaVuSans-31"/>
       <use xlink:href="#DejaVuSans-35" x="63.623047"/>
       <use xlink:href="#DejaVuSans-30" x="127.246094"/>
       <use xlink:href="#DejaVuSans-30" x="190.869141"/>
       <use xlink:href="#DejaVuSans-30" x="254.492188"/>
      </g>
     </g>
    </g>
    <g id="ytick_16">
     <g id="line2d_50">
      <g>
       <use xlink:href="#m2418580a54" x="252.392727" y="195.836139" style="stroke: #000000; stroke-width: 0.8"/>
      </g>
     </g>
     <g id="text_51">
      <!-- 20000 -->
      <g transform="translate(229.486477 197.735749) scale(0.05 -0.05)">
       <use xlink:href="#DejaVuSans-32"/>
       <use xlink:href="#DejaVuSans-30" x="63.623047"/>
       <use xlink:href="#DejaVuSans-30" x="127.246094"/>
       <use xlink:href="#DejaVuSans-30" x="190.869141"/>
       <use xlink:href="#DejaVuSans-30" x="254.492188"/>
      </g>
     </g>
    </g>
    <g id="text_52">
     <!-- d_EVA -->
     <g transform="translate(224.307571 201.979469) rotate(-90) scale(0.05 -0.05)">
      <use xlink:href="#DejaVuSans-64"/>
      <use xlink:href="#DejaVuSans-5f" x="63.476562"/>
      <use xlink:href="#DejaVuSans-45" x="113.476562"/>
      <use xlink:href="#DejaVuSans-56" x="176.660156"/>
      <use xlink:href="#DejaVuSans-41" x="238.693359"/>
     </g>
    </g>
   </g>
   <g id="line2d_51">
    <path d="M 259.77124 302.085818 
L 279.965063 302.038006 
L 279.965063 301.966287 
L 281.518434 301.966287 
L 281.518434 301.803725 
L 283.071805 301.803725 
L 283.071805 301.569445 
L 284.625176 301.569445 
L 284.625176 301.096102 
L 286.178547 301.096102 
L 286.178547 300.288074 
L 287.731918 300.288074 
L 287.731918 298.88239 
L 289.285289 298.88239 
L 289.285289 297.142021 
L 290.83866 297.142021 
L 290.83866 295.043058 
L 292.392031 295.043058 
L 292.392031 292.155192 
L 293.945402 292.155192 
L 293.945402 289.535075 
L 295.498773 289.535075 
L 295.498773 286.843239 
L 297.052144 286.843239 
L 297.052144 285.394525 
L 298.605515 285.394525 
L 298.605515 285.26065 
L 300.158886 285.26065 
L 300.158886 284.959432 
L 301.712258 284.959432 
L 301.712258 288.607515 
L 303.265629 288.607515 
L 303.265629 290.763852 
L 304.819 290.763852 
L 304.819 293.398313 
L 306.372371 293.398313 
L 306.372371 296.745178 
L 307.925742 296.745178 
L 307.925742 298.418611 
L 309.479113 298.418611 
L 309.479113 299.393983 
L 311.032484 299.393983 
L 311.032484 300.488886 
L 312.585855 300.488886 
L 312.585855 301.033946 
L 314.139226 301.033946 
L 314.139226 301.62682 
L 315.692597 301.62682 
L 315.692597 302.085818 
L 396.46789 302.0141 
L 396.46789 301.966287 
L 399.574632 301.918475 
L 399.574632 301.846756 
L 401.128003 301.846756 
L 401.128003 301.727226 
L 402.681375 301.727226 
L 402.681375 301.583788 
L 404.234746 301.583788 
L 404.234746 301.392539 
L 405.788117 301.392539 
L 405.788117 301.153477 
L 407.341488 301.153477 
L 407.341488 301.153477 
" clip-path="url(#p40e5337072)" style="fill: none; stroke: #1f77b4; stroke-width: 1.5; stroke-linecap: square"/>
   </g>
   <g id="line2d_52">
    <path d="M 259.77124 302.085818 
L 259.77124 295.635931 
L 261.324611 295.635931 
L 261.324611 289.186045 
L 262.877982 289.186045 
L 262.877982 282.736158 
L 264.431353 282.736158 
L 264.431353 276.764395 
L 265.984724 276.764395 
L 265.984724 270.792632 
L 267.538095 270.792632 
L 267.538095 267.49836 
L 269.091466 267.49836 
L 269.091466 264.328401 
L 270.644837 264.328401 
L 270.644837 262.640625 
L 272.198208 262.640625 
L 272.198208 262.19597 
L 273.751579 262.19597 
L 273.751579 261.894752 
L 290.83866 262.004721 
L 290.83866 262.19597 
L 292.392031 262.19597 
L 292.392031 262.315501 
L 293.945402 262.315501 
L 293.945402 263.31956 
L 295.498773 263.31956 
L 295.498773 264.753931 
L 297.052144 264.753931 
L 297.052144 267.57486 
L 298.605515 267.57486 
L 298.605515 271.63891 
L 300.158886 271.63891 
L 300.158886 275.129212 
L 301.712258 275.129212 
L 301.712258 281.641255 
L 303.265629 281.641255 
L 303.265629 286.135616 
L 304.819 286.135616 
L 304.819 290.534353 
L 306.372371 290.534353 
L 306.372371 294.956996 
L 307.925742 294.956996 
L 307.925742 297.347614 
L 309.479113 297.347614 
L 309.479113 298.853703 
L 311.032484 298.853703 
L 311.032484 300.240261 
L 312.585855 300.240261 
L 312.585855 300.957447 
L 314.139226 300.957447 
L 314.139226 301.62682 
L 315.692597 301.62682 
L 315.692597 302.085818 
L 351.42013 301.990193 
L 351.42013 301.918475 
L 352.973502 301.918475 
L 352.973502 301.775038 
L 354.526873 301.775038 
L 354.526873 301.488164 
L 356.080244 301.488164 
L 356.080244 301.105665 
L 357.633615 301.105665 
L 357.633615 300.555823 
L 359.186986 300.555823 
L 359.186986 299.862544 
L 360.740357 299.862544 
L 360.740357 298.911078 
L 362.293728 298.911078 
L 362.293728 297.72055 
L 363.847099 297.72055 
L 363.847099 296.243148 
L 365.40047 296.243148 
L 365.40047 294.407154 
L 366.953841 294.407154 
L 366.953841 292.212567 
L 368.507212 292.212567 
L 368.507212 289.6307 
L 370.060583 289.6307 
L 370.060583 286.88627 
L 371.613954 286.88627 
L 371.613954 283.783249 
L 373.167325 283.783249 
L 373.167325 280.297728 
L 374.720696 280.297728 
L 374.720696 276.525333 
L 376.274067 276.525333 
L 376.274067 272.513876 
L 377.827438 272.513876 
L 377.827438 267.856953 
L 379.380809 267.856953 
L 379.380809 262.793624 
L 380.93418 262.793624 
L 380.93418 257.419516 
L 382.487551 257.419516 
L 382.487551 251.882845 
L 384.040922 251.882845 
L 384.040922 246.37008 
L 385.594293 246.37008 
L 385.594293 240.828628 
L 387.147664 240.828628 
L 387.147664 235.550144 
L 388.701035 235.550144 
L 388.701035 230.486816 
L 390.254406 230.486816 
L 390.254406 225.710362 
L 391.807777 225.710362 
L 391.807777 221.029532 
L 393.361148 221.029532 
L 393.361148 216.563858 
L 394.914519 216.563858 
L 394.914519 212.361152 
L 396.46789 212.361152 
L 396.46789 208.44532 
L 398.021261 208.44532 
L 398.021261 204.792456 
L 399.574632 204.792456 
L 399.574632 201.522091 
L 401.128003 201.522091 
L 401.128003 198.705943 
L 402.681375 198.705943 
L 402.681375 196.152763 
L 404.234746 196.152763 
L 404.234746 194.005989 
L 405.788117 194.005989 
L 405.788117 192.122182 
L 407.341488 192.122182 
L 407.341488 192.122182 
" clip-path="url(#p40e5337072)" style="fill: none; stroke: #ff7f0e; stroke-width: 1.5; stroke-linecap: square"/>
   </g>
   <g id="line2d_53">
    <path d="M 259.77124 302.085818 
L 259.77124 298.744293 
L 261.324611 298.744293 
L 261.324611 295.425286 
L 262.877982 295.425286 
L 262.877982 292.607896 
L 264.431353 292.607896 
L 264.431353 290.13452 
L 265.984724 290.13452 
L 265.984724 287.773498 
L 267.538095 287.773498 
L 267.538095 285.172676 
L 269.091466 285.172676 
L 269.091466 282.332992 
L 270.644837 282.332992 
L 270.644837 279.263093 
L 272.198208 279.263093 
L 272.198208 275.997379 
L 273.751579 275.997379 
L 273.751579 273.323263 
L 275.30495 273.323263 
L 275.30495 271.161611 
L 276.858321 271.161611 
L 276.858321 269.527999 
L 278.411692 269.527999 
L 278.411692 268.404919 
L 279.965063 268.404919 
L 279.965063 267.381084 
L 281.518434 267.381084 
L 281.518434 266.535356 
L 283.071805 266.535356 
L 283.071805 265.851379 
L 284.625176 265.851379 
L 284.625176 265.316491 
L 286.178547 265.316491 
L 286.178547 264.63311 
L 287.731918 264.63311 
L 287.731918 263.809397 
L 289.285289 263.809397 
L 289.285289 263.032153 
L 290.83866 263.032153 
L 290.83866 262.195997 
L 292.392031 262.195997 
L 292.392031 262.315527 
L 293.945402 262.315527 
L 293.945402 263.319585 
L 295.498773 263.319585 
L 295.498773 264.753954 
L 297.052144 264.753954 
L 297.052144 267.574881 
L 298.605515 267.574881 
L 298.605515 271.638929 
L 300.158886 271.638929 
L 300.158886 275.129228 
L 301.712258 275.129228 
L 301.712258 281.641268 
L 303.265629 281.641268 
L 303.265629 286.135626 
L 304.819 286.135626 
L 304.819 290.534359 
L 306.372371 290.534359 
L 306.372371 294.956999 
L 307.925742 294.956999 
L 307.925742 297.347613 
L 309.479113 297.347613 
L 309.479113 298.853701 
L 311.032484 298.853701 
L 311.032484 300.240259 
L 312.585855 300.240259 
L 312.585855 300.957443 
L 314.139226 300.957443 
L 314.139226 301.626815 
L 315.692597 301.626815 
L 315.692597 302.085814 
L 359.186986 302.085808 
L 359.186986 301.863984 
L 360.740357 301.863984 
L 360.740357 301.444367 
L 362.293728 301.444367 
L 362.293728 300.815819 
L 363.847099 300.815819 
L 363.847099 300.080708 
L 365.40047 300.080708 
L 365.40047 299.221858 
L 366.953841 299.221858 
L 366.953841 298.241516 
L 368.507212 298.241516 
L 368.507212 296.974186 
L 370.060583 296.974186 
L 370.060583 295.628348 
L 371.613954 295.628348 
L 371.613954 294.102661 
L 373.167325 294.102661 
L 373.167325 292.51382 
L 374.720696 292.51382 
L 374.720696 290.895477 
L 376.274067 290.895477 
L 376.274067 289.27945 
L 377.827438 289.27945 
L 377.827438 287.821826 
L 379.380809 287.821826 
L 379.380809 286.126455 
L 380.93418 286.126455 
L 380.93418 284.417843 
L 382.487551 284.417843 
L 382.487551 282.723248 
L 384.040922 282.723248 
L 384.040922 281.087834 
L 385.594293 281.087834 
L 385.594293 279.400772 
L 387.147664 279.400772 
L 387.147664 277.665081 
L 388.701035 277.665081 
L 388.701035 275.847598 
L 390.254406 275.847598 
L 390.254406 273.893399 
L 391.807777 273.893399 
L 391.807777 271.832259 
L 393.361148 271.832259 
L 393.361148 269.629013 
L 394.914519 269.629013 
L 394.914519 267.23344 
L 396.46789 267.23344 
L 396.46789 264.565489 
L 398.021261 264.565489 
L 398.021261 261.580298 
L 399.574632 261.580298 
L 399.574632 258.252478 
L 401.128003 258.252478 
L 401.128003 254.570436 
L 402.681375 254.570436 
L 402.681375 250.546809 
L 404.234746 250.546809 
L 404.234746 246.62923 
L 405.788117 246.62923 
L 405.788117 242.780083 
L 407.341488 242.780083 
L 407.341488 242.780083 
" clip-path="url(#p40e5337072)" style="fill: none; stroke: #2ca02c; stroke-width: 1.5; stroke-linecap: square"/>
   </g>
   <g id="patch_21">
    <path d="M 252.392727 307.584 
L 252.392727 186.624 
" style="fill: none; stroke: #000000; stroke-width: 0.8; stroke-linejoin: miter; stroke-linecap: square"/>
   </g>
   <g id="patch_22">
    <path d="M 414.72 307.584 
L 414.72 186.624 
" style="fill: none; stroke: #000000; stroke-width: 0.8; stroke-linejoin: miter; stroke-linecap: square"/>
   </g>
   <g id="patch_23">
    <path d="M 252.392727 307.584 
L 414.72 307.584 
" style="fill: none; stroke: #000000; stroke-width: 0.8; stroke-linejoin: miter; stroke-linecap: square"/>
   </g>
   <g id="patch_24">
    <path d="M 252.392727 186.624 
L 414.72 186.624 
" style="fill: none; stroke: #000000; stroke-width: 0.8; stroke-linejoin: miter; stroke-linecap: square"/>
   </g>
   <g id="text_53">
    <!-- NUM4 -->
    <g transform="translate(323.129645 180.624) scale(0.07 -0.07)">
     <use xlink:href="#DejaVuSans-4e"/>
     <use xlink:href="#DejaVuSans-55" x="74.804688"/>
     <use xlink:href="#DejaVuSans-4d" x="147.998047"/>
     <use xlink:href="#DejaVuSans-34" x="234.277344"/>
    </g>
   </g>
   <g id="legend_4">
    <g id="patch_25">
     <path d="M 376.695781 213.058375 
L 411.22 213.058375 
Q 412.22 213.058375 412.22 212.058375 
L 412.22 190.124 
Q 412.22 189.124 411.22 189.124 
L 376.695781 189.124 
Q 375.695781 189.124 375.695781 190.124 
L 375.695781 212.058375 
Q 375.695781 213.058375 376.695781 213.058375 
z
" style="fill: #ffffff; opacity: 0.8; stroke: #cccccc; stroke-linejoin: miter"/>
    </g>
    <g id="line2d_54">
     <path d="M 377.695781 193.173219 
L 377.695781 193.173219 
L 382.695781 193.173219 
L 382.695781 193.173219 
L 387.695781 193.173219 
" style="fill: none; stroke: #1f77b4; stroke-width: 1.5; stroke-linecap: square"/>
    </g>
    <g id="text_54">
     <!-- EVA_lb -->
     <g transform="translate(391.695781 194.923219) scale(0.05 -0.05)">
      <use xlink:href="#DejaVuSans-45"/>
      <use xlink:href="#DejaVuSans-56" x="63.183594"/>
      <use xlink:href="#DejaVuSans-41" x="125.216797"/>
      <use xlink:href="#DejaVuSans-5f" x="193.625"/>
      <use xlink:href="#DejaVuSans-6c" x="243.625"/>
      <use xlink:href="#DejaVuSans-62" x="271.408203"/>
     </g>
    </g>
    <g id="line2d_55">
     <path d="M 377.695781 200.651344 
L 377.695781 200.651344 
L 382.695781 200.651344 
L 382.695781 200.651344 
L 387.695781 200.651344 
" style="fill: none; stroke: #ff7f0e; stroke-width: 1.5; stroke-linecap: square"/>
    </g>
    <g id="text_55">
     <!-- EVA_ub -->
     <g transform="translate(391.695781 202.401344) scale(0.05 -0.05)">
      <use xlink:href="#DejaVuSans-45"/>
      <use xlink:href="#DejaVuSans-56" x="63.183594"/>
      <use xlink:href="#DejaVuSans-41" x="125.216797"/>
      <use xlink:href="#DejaVuSans-5f" x="193.625"/>
      <use xlink:href="#DejaVuSans-75" x="243.625"/>
      <use xlink:href="#DejaVuSans-62" x="307.003906"/>
     </g>
    </g>
    <g id="line2d_56">
     <path d="M 377.695781 208.129469 
L 377.695781 208.129469 
L 382.695781 208.129469 
L 382.695781 208.129469 
L 387.695781 208.129469 
" style="fill: none; stroke: #2ca02c; stroke-width: 1.5; stroke-linecap: square"/>
    </g>
    <g id="text_56">
     <!-- EVA_C -->
     <g transform="translate(391.695781 209.879469) scale(0.05 -0.05)">
      <use xlink:href="#DejaVuSans-45"/>
      <use xlink:href="#DejaVuSans-56" x="63.183594"/>
      <use xlink:href="#DejaVuSans-41" x="125.216797"/>
      <use xlink:href="#DejaVuSans-5f" x="193.625"/>
      <use xlink:href="#DejaVuSans-43" x="243.625"/>
     </g>
    </g>
   </g>
  </g>
 </g>
 <defs>
  <clipPath id="p6f0c92e13e">
   <rect x="57.6" y="41.472" width="162.327273" height="120.96"/>
  </clipPath>
  <clipPath id="p6e832bb9a0">
   <rect x="252.392727" y="41.472" width="162.327273" height="120.96"/>
  </clipPath>
  <clipPath id="p0f31bfc83d">
   <rect x="57.6" y="186.624" width="162.327273" height="120.96"/>
  </clipPath>
  <clipPath id="p40e5337072">
   <rect x="252.392727" y="186.624" width="162.327273" height="120.96"/>
  </clipPath>
 </defs>
</svg>
